<svg xmlns="http://www.w3.org/2000/svg" viewBox="0 0 720 400"><defs><marker id="a" viewBox="0 0 10 10" refX="9" refY="5" markerWidth="7" markerHeight="7" orient="auto"><path d="M 0 1 L 9 5 L 0 9 z" fill="#F6F7F9"/></marker><marker id="r" viewBox="0 0 10 10" refX="9" refY="5" markerWidth="7" markerHeight="7" orient="auto"><path d="M 0 1 L 9 5 L 0 9 z" fill="#E06C60"/></marker><marker id="b" viewBox="0 0 10 10" refX="9" refY="5" markerWidth="7" markerHeight="7" orient="auto"><path d="M 0 1 L 9 5 L 0 9 z" fill="#149ECA"/></marker><marker id="g" viewBox="0 0 10 10" refX="9" refY="5" markerWidth="6" markerHeight="6" orient="auto"><path d="M 0 1 L 9 5 L 0 9 z" fill="#99A1B3"/></marker></defs>
<text x="360" y="26" text-anchor="middle" font-size="17" fill="#F6F7F9" font-family="system-ui, sans-serif">the same four-line loop, three instruction sets</text>
<text x="360" y="48" text-anchor="middle" font-size="12" fill="#99A1B3" font-family="system-ui, sans-serif">each block is one byte of real machine code</text>
<text x="112" y="112" text-anchor="end" font-size="15" fill="#F6F7F9" font-family="system-ui, sans-serif">x86-64</text>
<rect x="130" y="86" width="48" height="40" rx="6" fill="#E06C60" fill-opacity="0.16" stroke="#E06C60" stroke-width="1.8"/>
<line x1="154" y1="92" x2="154" y2="120" stroke="#E06C60" stroke-width="0.8" stroke-opacity="0.5"/>
<text x="154" y="111" text-anchor="middle" font-size="11.5" fill="#F6F7F9" font-family="ui-monospace, SFMono-Regular, Menlo, monospace">add</text>
<rect x="190" y="86" width="74" height="40" rx="6" fill="#E06C60" fill-opacity="0.16" stroke="#E06C60" stroke-width="1.8"/>
<line x1="214" y1="92" x2="214" y2="120" stroke="#E06C60" stroke-width="0.8" stroke-opacity="0.5"/>
<line x1="240" y1="92" x2="240" y2="120" stroke="#E06C60" stroke-width="0.8" stroke-opacity="0.5"/>
<text x="227" y="111" text-anchor="middle" font-size="11.5" fill="#F6F7F9" font-family="ui-monospace, SFMono-Regular, Menlo, monospace">add</text>
<rect x="276" y="86" width="48" height="40" rx="6" fill="#E06C60" fill-opacity="0.16" stroke="#E06C60" stroke-width="1.8"/>
<line x1="300" y1="92" x2="300" y2="120" stroke="#E06C60" stroke-width="0.8" stroke-opacity="0.5"/>
<text x="300" y="111" text-anchor="middle" font-size="11.5" fill="#F6F7F9" font-family="ui-monospace, SFMono-Regular, Menlo, monospace">cmp</text>
<rect x="336" y="86" width="48" height="40" rx="6" fill="#E06C60" fill-opacity="0.16" stroke="#E06C60" stroke-width="1.8"/>
<line x1="360" y1="92" x2="360" y2="120" stroke="#E06C60" stroke-width="0.8" stroke-opacity="0.5"/>
<text x="360" y="111" text-anchor="middle" font-size="11.5" fill="#F6F7F9" font-family="ui-monospace, SFMono-Regular, Menlo, monospace">jne</text>
<text x="130" y="146" text-anchor="start" font-size="12" fill="#99A1B3" font-family="system-ui, sans-serif">4 instructions · 9 bytes</text>
<text x="112" y="208" text-anchor="end" font-size="15" fill="#F6F7F9" font-family="system-ui, sans-serif">ARM64</text>
<rect x="130" y="182" width="100" height="40" rx="6" fill="#149ECA" fill-opacity="0.16" stroke="#149ECA" stroke-width="1.8"/>
<line x1="154" y1="188" x2="154" y2="216" stroke="#149ECA" stroke-width="0.8" stroke-opacity="0.5"/>
<line x1="180" y1="188" x2="180" y2="216" stroke="#149ECA" stroke-width="0.8" stroke-opacity="0.5"/>
<line x1="206" y1="188" x2="206" y2="216" stroke="#149ECA" stroke-width="0.8" stroke-opacity="0.5"/>
<text x="180" y="207" text-anchor="middle" font-size="11.5" fill="#F6F7F9" font-family="ui-monospace, SFMono-Regular, Menlo, monospace">add</text>
<rect x="242" y="182" width="100" height="40" rx="6" fill="#149ECA" fill-opacity="0.16" stroke="#149ECA" stroke-width="1.8"/>
<line x1="266" y1="188" x2="266" y2="216" stroke="#149ECA" stroke-width="0.8" stroke-opacity="0.5"/>
<line x1="292" y1="188" x2="292" y2="216" stroke="#149ECA" stroke-width="0.8" stroke-opacity="0.5"/>
<line x1="318" y1="188" x2="318" y2="216" stroke="#149ECA" stroke-width="0.8" stroke-opacity="0.5"/>
<text x="292" y="207" text-anchor="middle" font-size="11.5" fill="#F6F7F9" font-family="ui-monospace, SFMono-Regular, Menlo, monospace">add</text>
<rect x="354" y="182" width="100" height="40" rx="6" fill="#149ECA" fill-opacity="0.16" stroke="#149ECA" stroke-width="1.8"/>
<line x1="378" y1="188" x2="378" y2="216" stroke="#149ECA" stroke-width="0.8" stroke-opacity="0.5"/>
<line x1="404" y1="188" x2="404" y2="216" stroke="#149ECA" stroke-width="0.8" stroke-opacity="0.5"/>
<line x1="430" y1="188" x2="430" y2="216" stroke="#149ECA" stroke-width="0.8" stroke-opacity="0.5"/>
<text x="404" y="207" text-anchor="middle" font-size="11.5" fill="#F6F7F9" font-family="ui-monospace, SFMono-Regular, Menlo, monospace">cmp</text>
<rect x="466" y="182" width="100" height="40" rx="6" fill="#149ECA" fill-opacity="0.16" stroke="#149ECA" stroke-width="1.8"/>
<line x1="490" y1="188" x2="490" y2="216" stroke="#149ECA" stroke-width="0.8" stroke-opacity="0.5"/>
<line x1="516" y1="188" x2="516" y2="216" stroke="#149ECA" stroke-width="0.8" stroke-opacity="0.5"/>
<line x1="542" y1="188" x2="542" y2="216" stroke="#149ECA" stroke-width="0.8" stroke-opacity="0.5"/>
<text x="516" y="207" text-anchor="middle" font-size="11.5" fill="#F6F7F9" font-family="ui-monospace, SFMono-Regular, Menlo, monospace">b.ne</text>
<text x="130" y="242" text-anchor="start" font-size="12" fill="#99A1B3" font-family="system-ui, sans-serif">4 instructions · 16 bytes</text>
<text x="112" y="304" text-anchor="end" font-size="15" fill="#F6F7F9" font-family="system-ui, sans-serif">RISC-V</text>
<rect x="130" y="278" width="48" height="40" rx="6" fill="#149ECA" fill-opacity="0.16" stroke="#149ECA" stroke-width="1.8"/>
<line x1="154" y1="284" x2="154" y2="312" stroke="#149ECA" stroke-width="0.8" stroke-opacity="0.5"/>
<text x="154" y="303" text-anchor="middle" font-size="11.5" fill="#F6F7F9" font-family="ui-monospace, SFMono-Regular, Menlo, monospace">addw</text>
<rect x="190" y="278" width="48" height="40" rx="6" fill="#149ECA" fill-opacity="0.16" stroke="#149ECA" stroke-width="1.8"/>
<line x1="214" y1="284" x2="214" y2="312" stroke="#149ECA" stroke-width="0.8" stroke-opacity="0.5"/>
<text x="214" y="303" text-anchor="middle" font-size="11.5" fill="#F6F7F9" font-family="ui-monospace, SFMono-Regular, Menlo, monospace">addiw</text>
<rect x="250" y="278" width="100" height="40" rx="6" fill="#149ECA" fill-opacity="0.16" stroke="#149ECA" stroke-width="1.8"/>
<line x1="274" y1="284" x2="274" y2="312" stroke="#149ECA" stroke-width="0.8" stroke-opacity="0.5"/>
<line x1="300" y1="284" x2="300" y2="312" stroke="#149ECA" stroke-width="0.8" stroke-opacity="0.5"/>
<line x1="326" y1="284" x2="326" y2="312" stroke="#149ECA" stroke-width="0.8" stroke-opacity="0.5"/>
<text x="300" y="303" text-anchor="middle" font-size="11.5" fill="#F6F7F9" font-family="ui-monospace, SFMono-Regular, Menlo, monospace">bne</text>
<text x="130" y="338" text-anchor="start" font-size="12" fill="#99A1B3" font-family="system-ui, sans-serif">3 instructions · 8 bytes</text>
<text x="360" y="358" text-anchor="middle" font-size="12" fill="#99A1B3" font-family="system-ui, sans-serif">x86 packs the most into the fewest bytes per instruction; ARM keeps every instruction identical in size;</text>
<text x="360" y="378" text-anchor="middle" font-size="12.5" fill="#F6F7F9" font-family="system-ui, sans-serif">RISC-V does the job in three because its branch compares and jumps at the same time</text>
</svg>