<svg xmlns="http://www.w3.org/2000/svg" viewBox="0 0 340 380"><defs><marker id="a" viewBox="0 0 10 10" refX="9" refY="5" markerWidth="7" markerHeight="7" orient="auto"><path d="M 0 1 L 9 5 L 0 9 z" fill="#23272F"/></marker><marker id="r" viewBox="0 0 10 10" refX="9" refY="5" markerWidth="7" markerHeight="7" orient="auto"><path d="M 0 1 L 9 5 L 0 9 z" fill="#C1554D"/></marker><marker id="b" viewBox="0 0 10 10" refX="9" refY="5" markerWidth="7" markerHeight="7" orient="auto"><path d="M 0 1 L 9 5 L 0 9 z" fill="#087EA4"/></marker><marker id="g" viewBox="0 0 10 10" refX="9" refY="5" markerWidth="6" markerHeight="6" orient="auto"><path d="M 0 1 L 9 5 L 0 9 z" fill="#99A1B3"/></marker></defs>
<text x="170" y="28" text-anchor="middle" font-size="15" fill="#23272F" font-family="system-ui, sans-serif">where the PC gets its next value</text>
<rect x="22" y="84" width="122" height="46" rx="8" fill="none" stroke="#99A1B3" stroke-width="2"/>
<text x="83" y="113" text-anchor="middle" font-size="15" fill="#23272F" font-family="ui-monospace, SFMono-Regular, Menlo, monospace">PC + 1</text>
<text x="83" y="148" text-anchor="middle" font-size="11" fill="#99A1B3" font-family="system-ui, sans-serif">the default</text>
<rect x="22" y="186" width="122" height="46" rx="8" fill="#C1554D" fill-opacity="0.10" stroke="#C1554D" stroke-width="2"/>
<text x="83" y="215" text-anchor="middle" font-size="15" fill="#23272F" font-family="ui-monospace, SFMono-Regular, Menlo, monospace">target</text>
<text x="83" y="250" text-anchor="middle" font-size="11" fill="#99A1B3" font-family="system-ui, sans-serif">from the instruction</text>
<path d="M 196 92 L 230 112 L 230 200 L 196 220 Z" fill="#C1554D" fill-opacity="0.14" stroke="#C1554D" stroke-width="2"/>
<text x="213" y="162" text-anchor="middle" font-size="11" fill="#C1554D" font-family="system-ui, sans-serif">mux</text>
<path d="M 150.0 107.0 L 191.0 122.0" fill="none" stroke="#99A1B3" stroke-width="2" stroke-linecap="round" stroke-linejoin="round" marker-end="url(#g)"/>
<path d="M 150.0 209.0 L 191.0 192.0" fill="none" stroke="#C1554D" stroke-width="2" stroke-linecap="round" stroke-linejoin="round" marker-end="url(#r)"/>
<path d="M 213.0 240.0 L 213.0 224.0" fill="none" stroke="#C1554D" stroke-width="1.8" stroke-linecap="round" stroke-linejoin="round" marker-end="url(#r)" stroke-dasharray="3 3"/>
<text x="213" y="260" text-anchor="middle" font-size="12" fill="#C1554D" font-family="system-ui, sans-serif">jump?</text>
<rect x="262" y="168" width="62" height="46" rx="8" fill="none" stroke="#23272F" stroke-width="2"/>
<text x="293" y="197" text-anchor="middle" font-size="16" fill="#23272F" font-family="ui-monospace, SFMono-Regular, Menlo, monospace">PC</text>
<path d="M 236.0 156.0 L 256.0 191.0" fill="none" stroke="#23272F" stroke-width="2.2" stroke-linecap="round" stroke-linejoin="round" marker-end="url(#a)"/>
<text x="170" y="322" text-anchor="middle" font-size="12.5" fill="#23272F" font-family="system-ui, sans-serif">a jump is not a special power —</text>
<text x="170" y="342" text-anchor="middle" font-size="12.5" fill="#23272F" font-family="system-ui, sans-serif">it is one extra input on one multiplexer</text>
</svg>