<svg xmlns="http://www.w3.org/2000/svg" viewBox="0 0 640 420" font-family="ui-monospace, SFMono-Regular, Menlo, monospace">
<text x="320" y="38" text-anchor="middle" font-size="20" fill="#C1554D">255 + 1 = 0</text>
<circle cx="320" cy="215" r="122" fill="none" stroke="#99A1B3" stroke-width="2"/>
<line x1="320.0" y1="93.0" x2="320.0" y2="109.0" stroke="#99A1B3" stroke-width="2.4"/>
<line x1="366.7" y1="102.3" x2="363.2" y2="110.6" stroke="#99A1B3" stroke-width="1.4"/>
<line x1="406.3" y1="128.7" x2="399.9" y2="135.1" stroke="#99A1B3" stroke-width="1.4"/>
<line x1="432.7" y1="168.3" x2="424.4" y2="171.8" stroke="#99A1B3" stroke-width="1.4"/>
<line x1="442.0" y1="215.0" x2="426.0" y2="215.0" stroke="#99A1B3" stroke-width="2.4"/>
<line x1="432.7" y1="261.7" x2="424.4" y2="258.2" stroke="#99A1B3" stroke-width="1.4"/>
<line x1="406.3" y1="301.3" x2="399.9" y2="294.9" stroke="#99A1B3" stroke-width="1.4"/>
<line x1="366.7" y1="327.7" x2="363.2" y2="319.4" stroke="#99A1B3" stroke-width="1.4"/>
<line x1="320.0" y1="337.0" x2="320.0" y2="321.0" stroke="#99A1B3" stroke-width="2.4"/>
<line x1="273.3" y1="327.7" x2="276.8" y2="319.4" stroke="#99A1B3" stroke-width="1.4"/>
<line x1="233.7" y1="301.3" x2="240.1" y2="294.9" stroke="#99A1B3" stroke-width="1.4"/>
<line x1="207.3" y1="261.7" x2="215.6" y2="258.2" stroke="#99A1B3" stroke-width="1.4"/>
<line x1="198.0" y1="215.0" x2="214.0" y2="215.0" stroke="#99A1B3" stroke-width="2.4"/>
<line x1="207.3" y1="168.3" x2="215.6" y2="171.8" stroke="#99A1B3" stroke-width="1.4"/>
<line x1="233.7" y1="128.7" x2="240.1" y2="135.1" stroke="#99A1B3" stroke-width="1.4"/>
<line x1="273.3" y1="102.3" x2="276.8" y2="110.6" stroke="#99A1B3" stroke-width="1.4"/>
<text x="358" y="89" text-anchor="start" font-size="17" fill="#23272F">0</text>
<text x="464" y="221" text-anchor="start" font-size="17" fill="#23272F">64</text>
<text x="320" y="367" text-anchor="middle" font-size="17" fill="#23272F">128</text>
<text x="176" y="221" text-anchor="end" font-size="17" fill="#23272F">192</text>
<text x="291" y="71" text-anchor="middle" font-size="17" fill="#C1554D">255</text>
<defs><marker id="arrO" viewBox="0 0 10 10" refX="9" refY="5" markerWidth="8" markerHeight="8" orient="auto-start-reverse"><path d="M 0 1 L 9 5 L 0 9 z" fill="#C1554D"/></marker></defs>
<path d="M 296.7 81.0 A 136 136 0 0 1 336.6 80.0" fill="none" stroke="#C1554D" stroke-width="3" marker-end="url(#arrO)"/>
<text x="320" y="207" text-anchor="middle" font-size="15" fill="#99A1B3" font-family="system-ui, sans-serif">8-bit counter</text>
<text x="320" y="229" text-anchor="middle" font-size="13" fill="#99A1B3" font-family="system-ui, sans-serif">256 states, then back to 0</text>
<text x="320" y="392" text-anchor="middle" font-size="13" fill="#99A1B3" font-family="system-ui, sans-serif">Pac-Man level 256 &#183; Gangnam Style views &#183; Boeing 787 &#183; Y2038 &#8212; same wheel, bigger dials</text>
<text x="320" y="412" text-anchor="middle" font-size="13" fill="#99A1B3" font-family="system-ui, sans-serif">The 9th bit has nowhere to go &#8212; it falls off, and the count lands back at the start</text>
</svg>