<svg xmlns="http://www.w3.org/2000/svg" viewBox="0 0 720 330" font-family="ui-monospace, SFMono-Regular, Menlo, monospace">
<defs><marker id="arb" viewBox="0 0 10 10" refX="8" refY="5" markerWidth="6" markerHeight="6" orient="auto"><path d="M 0 1 L 9 5 L 0 9 z" fill="#99A1B3"/></marker></defs>
<rect x="42" y="46" width="66" height="58" rx="8" fill="#C1554D" fill-opacity="0.12" stroke="#C1554D" stroke-width="2"/>
<text x="75" y="84" text-anchor="middle" font-size="24" fill="#23272F">1</text>
<text x="75" y="132" text-anchor="middle" font-size="17" fill="#C1554D">−128</text>
<path d="M 75 142 C 75 182, 360 170, 360 210" fill="none" stroke="#99A1B3" stroke-width="1.4" marker-end="url(#arb)"/>
<rect x="120" y="46" width="66" height="58" rx="8" fill="#087EA4" fill-opacity="0.12" stroke="#087EA4" stroke-width="2"/>
<text x="153" y="84" text-anchor="middle" font-size="24" fill="#23272F">1</text>
<text x="153" y="132" text-anchor="middle" font-size="17" fill="#23272F">64</text>
<path d="M 153 142 C 153 182, 360 170, 360 210" fill="none" stroke="#99A1B3" stroke-width="1.4" marker-end="url(#arb)"/>
<rect x="198" y="46" width="66" height="58" rx="8" fill="#087EA4" fill-opacity="0.12" stroke="#087EA4" stroke-width="2"/>
<text x="231" y="84" text-anchor="middle" font-size="24" fill="#23272F">1</text>
<text x="231" y="132" text-anchor="middle" font-size="17" fill="#23272F">32</text>
<path d="M 231 142 C 231 182, 360 170, 360 210" fill="none" stroke="#99A1B3" stroke-width="1.4" marker-end="url(#arb)"/>
<rect x="276" y="46" width="66" height="58" rx="8" fill="#087EA4" fill-opacity="0.12" stroke="#087EA4" stroke-width="2"/>
<text x="309" y="84" text-anchor="middle" font-size="24" fill="#23272F">1</text>
<text x="309" y="132" text-anchor="middle" font-size="17" fill="#23272F">16</text>
<path d="M 309 142 C 309 182, 360 170, 360 210" fill="none" stroke="#99A1B3" stroke-width="1.4" marker-end="url(#arb)"/>
<rect x="354" y="46" width="66" height="58" rx="8" fill="#087EA4" fill-opacity="0.12" stroke="#087EA4" stroke-width="2"/>
<text x="387" y="84" text-anchor="middle" font-size="24" fill="#23272F">1</text>
<text x="387" y="132" text-anchor="middle" font-size="17" fill="#23272F">8</text>
<path d="M 387 142 C 387 182, 360 170, 360 210" fill="none" stroke="#99A1B3" stroke-width="1.4" marker-end="url(#arb)"/>
<rect x="432" y="46" width="66" height="58" rx="8" fill="none" stroke="#99A1B3" stroke-width="2"/>
<text x="465" y="84" text-anchor="middle" font-size="24" fill="#99A1B3">0</text>
<text x="465" y="132" text-anchor="middle" font-size="17" fill="#99A1B3">4</text>
<rect x="510" y="46" width="66" height="58" rx="8" fill="#087EA4" fill-opacity="0.12" stroke="#087EA4" stroke-width="2"/>
<text x="543" y="84" text-anchor="middle" font-size="24" fill="#23272F">1</text>
<text x="543" y="132" text-anchor="middle" font-size="17" fill="#23272F">2</text>
<path d="M 543 142 C 543 182, 360 170, 360 210" fill="none" stroke="#99A1B3" stroke-width="1.4" marker-end="url(#arb)"/>
<rect x="588" y="46" width="66" height="58" rx="8" fill="#087EA4" fill-opacity="0.12" stroke="#087EA4" stroke-width="2"/>
<text x="621" y="84" text-anchor="middle" font-size="24" fill="#23272F">1</text>
<text x="621" y="132" text-anchor="middle" font-size="17" fill="#23272F">1</text>
<path d="M 621 142 C 621 182, 360 170, 360 210" fill="none" stroke="#99A1B3" stroke-width="1.4" marker-end="url(#arb)"/>
<text x="183" y="242" text-anchor="start" font-size="19" fill="#C1554D">−128</text>
<text x="239" y="242" text-anchor="start" font-size="19" fill="#23272F"> + 64 + 32 + 16 + 8 + 2 + 1</text>
<text x="251" y="274" text-anchor="start" font-size="19" fill="#23272F">= </text>
<text x="274" y="274" text-anchor="start" font-size="19" fill="#C1554D">−128</text>
<text x="332" y="274" text-anchor="start" font-size="19" fill="#23272F"> + 123 = −5 ✓</text>
</svg>