<svg xmlns="http://www.w3.org/2000/svg" viewBox="0 0 720 330" font-family="ui-monospace, SFMono-Regular, Menlo, monospace">
<rect x="30" y="60" width="160" height="54" rx="8" fill="none" stroke="#99A1B3" stroke-width="2"/>
<text x="110" y="95" text-anchor="middle" font-size="21" fill="#23272F">00000101</text>
<text x="110" y="46" text-anchor="middle" font-size="17" fill="#23272F">+5</text>
<rect x="280" y="60" width="160" height="54" rx="8" fill="none" stroke="#99A1B3" stroke-width="2"/>
<text x="360" y="95" text-anchor="middle" font-size="21" fill="#23272F">11111010</text>
<rect x="530" y="60" width="160" height="54" rx="8" fill="#087EA4" fill-opacity="0.12" stroke="#087EA4" stroke-width="2"/>
<text x="610" y="95" text-anchor="middle" font-size="21" fill="#23272F">11111011</text>
<text x="610" y="46" text-anchor="middle" font-size="17" fill="#087EA4">−5</text>
<defs><marker id="arw" viewBox="0 0 10 10" refX="9" refY="5" markerWidth="7" markerHeight="7" orient="auto"><path d="M 0 1 L 9 5 L 0 9 z" fill="#23272F"/></marker></defs>
<line x1="196" y1="87" x2="274" y2="87" stroke="#23272F" stroke-width="2" marker-end="url(#arw)"/>
<text x="235" y="75" text-anchor="middle" font-size="13" fill="#23272F" font-family="system-ui, sans-serif">flip every bit</text>
<line x1="446" y1="87" x2="524" y2="87" stroke="#23272F" stroke-width="2" marker-end="url(#arw)"/>
<text x="485" y="75" text-anchor="middle" font-size="13" fill="#23272F" font-family="system-ui, sans-serif">+ 1</text>
<text x="250" y="178" text-anchor="start" font-size="15" fill="#99A1B3" font-family="system-ui, sans-serif">check with a plain adder:</text>
<text x="296" y="208" text-anchor="start" font-size="19" fill="#23272F">00000101</text>
<text x="490" y="208" text-anchor="start" font-size="15" fill="#99A1B3">+5</text>
<text x="272" y="234" text-anchor="start" font-size="19" fill="#23272F">+ 11111011</text>
<text x="490" y="234" text-anchor="start" font-size="15" fill="#99A1B3">−5</text>
<line x1="270" y1="246" x2="470" y2="246" stroke="#99A1B3" stroke-width="1.5"/>
<text x="272" y="272" text-anchor="start" font-size="19" fill="#C1554D">1</text>
<rect x="290" y="252" width="118" height="28" rx="6" fill="#087EA4" fill-opacity="0.12" stroke="#087EA4" stroke-width="1.5"/>
<text x="296" y="272" text-anchor="start" font-size="19" fill="#23272F">00000000</text>
<text x="490" y="272" text-anchor="start" font-size="15" fill="#087EA4">= 0 ✓</text>
<text x="242" y="300" text-anchor="start" font-size="13" fill="#C1554D" font-family="system-ui, sans-serif">the carry falls off the 8-bit edge</text>
</svg>