<svg xmlns="http://www.w3.org/2000/svg" viewBox="0 0 640 430" font-family="ui-monospace, SFMono-Regular, Menlo, monospace">
<text x="320" y="36" text-anchor="middle" font-size="20" fill="#23272F">the 256-state dial, re-zoned</text>
<circle cx="320" cy="225" r="122" fill="none" stroke="#99A1B3" stroke-width="2"/>
<path d="M 332.8 103.7 A 122 122 0 0 1 332.8 346.3" fill="none" stroke="#087EA4" stroke-width="4" stroke-opacity="0.55"/>
<path d="M 307.2 346.3 A 122 122 0 0 1 307.2 103.7" fill="none" stroke="#C1554D" stroke-width="4" stroke-opacity="0.45"/>
<line x1="320.0" y1="103.0" x2="320.0" y2="119.0" stroke="#99A1B3" stroke-width="2.4"/>
<line x1="366.7" y1="112.3" x2="363.6" y2="119.7" stroke="#99A1B3" stroke-width="1.4"/>
<line x1="406.3" y1="138.7" x2="400.6" y2="144.4" stroke="#99A1B3" stroke-width="1.4"/>
<line x1="432.7" y1="178.3" x2="425.3" y2="181.4" stroke="#99A1B3" stroke-width="1.4"/>
<line x1="442.0" y1="225.0" x2="426.0" y2="225.0" stroke="#99A1B3" stroke-width="2.4"/>
<line x1="432.7" y1="271.7" x2="425.3" y2="268.6" stroke="#99A1B3" stroke-width="1.4"/>
<line x1="406.3" y1="311.3" x2="400.6" y2="305.6" stroke="#99A1B3" stroke-width="1.4"/>
<line x1="366.7" y1="337.7" x2="363.6" y2="330.3" stroke="#99A1B3" stroke-width="1.4"/>
<line x1="320.0" y1="347.0" x2="320.0" y2="331.0" stroke="#99A1B3" stroke-width="2.4"/>
<line x1="273.3" y1="337.7" x2="276.4" y2="330.3" stroke="#99A1B3" stroke-width="1.4"/>
<line x1="233.7" y1="311.3" x2="239.4" y2="305.6" stroke="#99A1B3" stroke-width="1.4"/>
<line x1="207.3" y1="271.7" x2="214.7" y2="268.6" stroke="#99A1B3" stroke-width="1.4"/>
<line x1="198.0" y1="225.0" x2="214.0" y2="225.0" stroke="#99A1B3" stroke-width="2.4"/>
<line x1="207.3" y1="178.3" x2="214.7" y2="181.4" stroke="#99A1B3" stroke-width="1.4"/>
<line x1="233.7" y1="138.7" x2="239.4" y2="144.4" stroke="#99A1B3" stroke-width="1.4"/>
<line x1="273.3" y1="112.3" x2="276.4" y2="119.7" stroke="#99A1B3" stroke-width="1.4"/>
<text x="320" y="81" text-anchor="middle" font-size="17" fill="#23272F">0</text>
<text x="425" y="124" text-anchor="middle" font-size="17" fill="#087EA4">+32</text>
<text x="474" y="230" text-anchor="start" font-size="17" fill="#087EA4">+64</text>
<text x="425" y="338" text-anchor="middle" font-size="17" fill="#087EA4">+96</text>
<text x="363" y="383" text-anchor="middle" font-size="17" fill="#087EA4">+127</text>
<text x="277" y="383" text-anchor="middle" font-size="17" fill="#C1554D">−128</text>
<text x="215" y="338" text-anchor="middle" font-size="17" fill="#C1554D">−96</text>
<text x="166" y="230" text-anchor="end" font-size="17" fill="#C1554D">−64</text>
<text x="215" y="124" text-anchor="middle" font-size="17" fill="#C1554D">−32</text>
<text x="282" y="82" text-anchor="middle" font-size="17" fill="#C1554D">−1</text>
<path d="M 320.0 325.0 l 5 8 l -10 8 l 10 8 l -5 12" fill="none" stroke="#C1554D" stroke-width="3"/>
<text x="320" y="399" text-anchor="middle" font-size="16" fill="#C1554D">the seam: +127 + 1 = −128</text>
<text x="428" y="107" text-anchor="start" font-size="14" fill="#087EA4" font-family="system-ui, sans-serif">positive · MSB = 0</text>
<text x="212" y="107" text-anchor="end" font-size="14" fill="#C1554D" font-family="system-ui, sans-serif">negative · MSB = 1</text>
<text x="320" y="217" text-anchor="middle" font-size="15" fill="#99A1B3" font-family="system-ui, sans-serif">same 256 states —</text>
<text x="320" y="239" text-anchor="middle" font-size="15" fill="#99A1B3" font-family="system-ui, sans-serif">new contract</text>
</svg>