<svg xmlns="http://www.w3.org/2000/svg" viewBox="0 0 340 320" font-family="system-ui, sans-serif">
<text x="170" y="30" text-anchor="middle" font-size="16" fill="#F6F7F9">two flips: invisible</text>
<rect x="18" y="64" width="30" height="38" rx="6" fill="none" stroke="#99A1B3" stroke-width="2"/>
<text x="33" y="90" text-anchor="middle" font-size="17" fill="#F6F7F9" font-family="ui-monospace, SFMono-Regular, Menlo, monospace">0</text>
<rect x="51" y="64" width="30" height="38" rx="6" fill="none" stroke="#99A1B3" stroke-width="2"/>
<text x="66" y="90" text-anchor="middle" font-size="17" fill="#F6F7F9" font-family="ui-monospace, SFMono-Regular, Menlo, monospace">1</text>
<rect x="84" y="64" width="30" height="38" rx="6" fill="none" stroke="#99A1B3" stroke-width="2"/>
<text x="99" y="90" text-anchor="middle" font-size="17" fill="#F6F7F9" font-family="ui-monospace, SFMono-Regular, Menlo, monospace">0</text>
<rect x="117" y="64" width="30" height="38" rx="6" fill="none" stroke="#99A1B3" stroke-width="2"/>
<text x="132" y="90" text-anchor="middle" font-size="17" fill="#F6F7F9" font-family="ui-monospace, SFMono-Regular, Menlo, monospace">0</text>
<rect x="150" y="64" width="30" height="38" rx="6" fill="none" stroke="#99A1B3" stroke-width="2"/>
<text x="165" y="90" text-anchor="middle" font-size="17" fill="#F6F7F9" font-family="ui-monospace, SFMono-Regular, Menlo, monospace">0</text>
<rect x="183" y="64" width="30" height="38" rx="6" fill="none" stroke="#99A1B3" stroke-width="2"/>
<text x="198" y="90" text-anchor="middle" font-size="17" fill="#F6F7F9" font-family="ui-monospace, SFMono-Regular, Menlo, monospace">0</text>
<rect x="216" y="64" width="30" height="38" rx="6" fill="none" stroke="#99A1B3" stroke-width="2"/>
<text x="231" y="90" text-anchor="middle" font-size="17" fill="#F6F7F9" font-family="ui-monospace, SFMono-Regular, Menlo, monospace">1</text>
<rect x="249" y="64" width="30" height="38" rx="6" fill="none" stroke="#99A1B3" stroke-width="2"/>
<text x="264" y="90" text-anchor="middle" font-size="17" fill="#F6F7F9" font-family="ui-monospace, SFMono-Regular, Menlo, monospace">1</text>
<rect x="292" y="64" width="30" height="38" rx="6" fill="#149ECA" fill-opacity="0.14" stroke="#149ECA" stroke-width="2"/>
<text x="307" y="90" text-anchor="middle" font-size="17" fill="#F6F7F9" font-family="ui-monospace, SFMono-Regular, Menlo, monospace">1</text>
<text x="170" y="124" text-anchor="middle" font-size="13" fill="#F6F7F9">sent: four 1s — even ✓</text>
<rect x="18" y="170" width="30" height="38" rx="6" fill="none" stroke="#99A1B3" stroke-width="2"/>
<text x="33" y="196" text-anchor="middle" font-size="17" fill="#F6F7F9" font-family="ui-monospace, SFMono-Regular, Menlo, monospace">0</text>
<rect x="51" y="170" width="30" height="38" rx="6" fill="#E06C60" fill-opacity="0.14" stroke="#E06C60" stroke-width="2"/>
<text x="66" y="196" text-anchor="middle" font-size="17" fill="#F6F7F9" font-family="ui-monospace, SFMono-Regular, Menlo, monospace">0</text>
<rect x="84" y="170" width="30" height="38" rx="6" fill="none" stroke="#99A1B3" stroke-width="2"/>
<text x="99" y="196" text-anchor="middle" font-size="17" fill="#F6F7F9" font-family="ui-monospace, SFMono-Regular, Menlo, monospace">0</text>
<rect x="117" y="170" width="30" height="38" rx="6" fill="none" stroke="#99A1B3" stroke-width="2"/>
<text x="132" y="196" text-anchor="middle" font-size="17" fill="#F6F7F9" font-family="ui-monospace, SFMono-Regular, Menlo, monospace">0</text>
<rect x="150" y="170" width="30" height="38" rx="6" fill="none" stroke="#99A1B3" stroke-width="2"/>
<text x="165" y="196" text-anchor="middle" font-size="17" fill="#F6F7F9" font-family="ui-monospace, SFMono-Regular, Menlo, monospace">0</text>
<rect x="183" y="170" width="30" height="38" rx="6" fill="#E06C60" fill-opacity="0.14" stroke="#E06C60" stroke-width="2"/>
<text x="198" y="196" text-anchor="middle" font-size="17" fill="#F6F7F9" font-family="ui-monospace, SFMono-Regular, Menlo, monospace">1</text>
<rect x="216" y="170" width="30" height="38" rx="6" fill="none" stroke="#99A1B3" stroke-width="2"/>
<text x="231" y="196" text-anchor="middle" font-size="17" fill="#F6F7F9" font-family="ui-monospace, SFMono-Regular, Menlo, monospace">1</text>
<rect x="249" y="170" width="30" height="38" rx="6" fill="none" stroke="#99A1B3" stroke-width="2"/>
<text x="264" y="196" text-anchor="middle" font-size="17" fill="#F6F7F9" font-family="ui-monospace, SFMono-Regular, Menlo, monospace">1</text>
<rect x="292" y="170" width="30" height="38" rx="6" fill="#149ECA" fill-opacity="0.14" stroke="#149ECA" stroke-width="2"/>
<text x="307" y="196" text-anchor="middle" font-size="17" fill="#F6F7F9" font-family="ui-monospace, SFMono-Regular, Menlo, monospace">1</text>
<text x="170" y="230" text-anchor="middle" font-size="13" fill="#99A1B3">received: four 1s — even → silence</text>
<text x="170" y="292" text-anchor="middle" font-size="13" fill="#E06C60">the flips cancel — damage passes as clean</text>
</svg>