<svg xmlns="http://www.w3.org/2000/svg" viewBox="0 0 720 380" font-family="ui-monospace, SFMono-Regular, Menlo, monospace">
<text x="360" y="26" text-anchor="middle" font-size="16" fill="#23272F" font-family="system-ui, sans-serif">LZ77 sliding window — abcabcabcabc (12 chars)</text>

<rect x="42" y="100" width="50" height="46" rx="6" fill="#23272F" fill-opacity="0.06" stroke="#23272F" stroke-width="1.6"/>
<text x="67" y="130" text-anchor="middle" font-size="18" fill="#23272F">a</text>
<rect x="98" y="100" width="50" height="46" rx="6" fill="#23272F" fill-opacity="0.06" stroke="#23272F" stroke-width="1.6"/>
<text x="123" y="130" text-anchor="middle" font-size="18" fill="#23272F">b</text>
<rect x="154" y="100" width="50" height="46" rx="6" fill="#23272F" fill-opacity="0.06" stroke="#23272F" stroke-width="1.6"/>
<text x="179" y="130" text-anchor="middle" font-size="18" fill="#23272F">c</text>

<rect x="210" y="100" width="50" height="46" rx="6" fill="#087EA4" fill-opacity="0.12" stroke="#087EA4" stroke-width="1.8"/>
<text x="235" y="130" text-anchor="middle" font-size="18" fill="#23272F">a</text>
<rect x="266" y="100" width="50" height="46" rx="6" fill="#087EA4" fill-opacity="0.12" stroke="#087EA4" stroke-width="1.8"/>
<text x="291" y="130" text-anchor="middle" font-size="18" fill="#23272F">b</text>
<rect x="322" y="100" width="50" height="46" rx="6" fill="#087EA4" fill-opacity="0.12" stroke="#087EA4" stroke-width="1.8"/>
<text x="347" y="130" text-anchor="middle" font-size="18" fill="#23272F">c</text>
<rect x="378" y="100" width="50" height="46" rx="6" fill="#087EA4" fill-opacity="0.12" stroke="#087EA4" stroke-width="1.8"/>
<text x="403" y="130" text-anchor="middle" font-size="18" fill="#23272F">a</text>
<rect x="434" y="100" width="50" height="46" rx="6" fill="#087EA4" fill-opacity="0.12" stroke="#087EA4" stroke-width="1.8"/>
<text x="459" y="130" text-anchor="middle" font-size="18" fill="#23272F">b</text>
<rect x="490" y="100" width="50" height="46" rx="6" fill="#087EA4" fill-opacity="0.12" stroke="#087EA4" stroke-width="1.8"/>
<text x="515" y="130" text-anchor="middle" font-size="18" fill="#23272F">c</text>
<rect x="546" y="100" width="50" height="46" rx="6" fill="#087EA4" fill-opacity="0.12" stroke="#087EA4" stroke-width="1.8"/>
<text x="571" y="130" text-anchor="middle" font-size="18" fill="#23272F">a</text>
<rect x="602" y="100" width="50" height="46" rx="6" fill="#087EA4" fill-opacity="0.12" stroke="#087EA4" stroke-width="1.8"/>
<text x="627" y="130" text-anchor="middle" font-size="18" fill="#23272F">b</text>
<rect x="658" y="100" width="50" height="46" rx="6" fill="#087EA4" fill-opacity="0.12" stroke="#087EA4" stroke-width="1.8"/>
<text x="683" y="130" text-anchor="middle" font-size="18" fill="#23272F">c</text>

<path d="M42,160 L42,168 L204,168 L204,160" fill="none" stroke="#99A1B3" stroke-width="1.4"/>
<text x="123" y="184" text-anchor="middle" font-size="12" fill="#99A1B3" font-family="system-ui, sans-serif">already output (search buffer)</text>

<path d="M210,160 L210,168 L708,168 L708,160" fill="none" stroke="#087EA4" stroke-width="1.4"/>
<text x="459" y="184" text-anchor="middle" font-size="12" fill="#087EA4" font-family="system-ui, sans-serif">matched via (distance 3, length 9)</text>

<path d="M235,200 C235,236 67,236 67,200" fill="none" stroke="#C1554D" stroke-width="1.8" marker-end="url(#arrow)"/>
<defs>
<marker id="arrow" markerWidth="8" markerHeight="8" refX="4" refY="4" orient="auto">
<path d="M0,0 L8,4 L0,8 Z" fill="#C1554D"/>
</marker>
</defs>
<text x="151" y="252" text-anchor="middle" font-size="13" fill="#C1554D" font-family="system-ui, sans-serif">distance 3</text>

<text x="360" y="300" text-anchor="middle" font-size="14" fill="#23272F" font-family="system-ui, sans-serif">Output: literals a, b, c  +  token (distance 3, length 9)</text>
<text x="360" y="324" text-anchor="middle" font-size="14" fill="#087EA4" font-family="system-ui, sans-serif">12 characters packed into 4 symbols</text>
<text x="360" y="352" text-anchor="middle" font-size="12" fill="#99A1B3" font-family="system-ui, sans-serif">length (9) can exceed distance (3) — the copy runs past what exists and regenerates the pattern</text>
</svg>
