<svg xmlns="http://www.w3.org/2000/svg" viewBox="0 0 720 370" font-family="system-ui, sans-serif">
<defs><marker id="pm" viewBox="0 0 10 10" refX="9" refY="5" markerWidth="7" markerHeight="7" orient="auto-start-reverse"><path d="M 0 0 L 10 5 L 0 10 z" fill="#99A1B3"/></marker><marker id="pd" viewBox="0 0 10 10" refX="9" refY="5" markerWidth="7" markerHeight="7" orient="auto-start-reverse"><path d="M 0 0 L 10 5 L 0 10 z" fill="#C1554D"/></marker></defs>
<text x="163.0" y="34" font-size="13.5" font-weight="600" fill="#23272F" text-anchor="middle">every 3-bit file — 8 of them</text>
<text x="557.0" y="34" font-size="13.5" font-weight="600" fill="#23272F" text-anchor="middle">every shorter file — only 7</text>
<rect x="120" y="54" width="86" height="26" rx="6" fill="none" stroke="#99A1B3" stroke-width="2"/>
<text x="163.0" y="72" font-size="13.5" fill="#23272F" font-weight="400" text-anchor="middle" font-family="ui-monospace, SFMono-Regular, Menlo, monospace">000</text>
<rect x="120" y="88" width="86" height="26" rx="6" fill="none" stroke="#99A1B3" stroke-width="2"/>
<text x="163.0" y="106" font-size="13.5" fill="#23272F" font-weight="400" text-anchor="middle" font-family="ui-monospace, SFMono-Regular, Menlo, monospace">001</text>
<rect x="120" y="122" width="86" height="26" rx="6" fill="none" stroke="#99A1B3" stroke-width="2"/>
<text x="163.0" y="140" font-size="13.5" fill="#23272F" font-weight="400" text-anchor="middle" font-family="ui-monospace, SFMono-Regular, Menlo, monospace">010</text>
<rect x="120" y="156" width="86" height="26" rx="6" fill="none" stroke="#99A1B3" stroke-width="2"/>
<text x="163.0" y="174" font-size="13.5" fill="#23272F" font-weight="400" text-anchor="middle" font-family="ui-monospace, SFMono-Regular, Menlo, monospace">011</text>
<rect x="120" y="190" width="86" height="26" rx="6" fill="none" stroke="#99A1B3" stroke-width="2"/>
<text x="163.0" y="208" font-size="13.5" fill="#23272F" font-weight="400" text-anchor="middle" font-family="ui-monospace, SFMono-Regular, Menlo, monospace">100</text>
<rect x="120" y="224" width="86" height="26" rx="6" fill="none" stroke="#99A1B3" stroke-width="2"/>
<text x="163.0" y="242" font-size="13.5" fill="#23272F" font-weight="400" text-anchor="middle" font-family="ui-monospace, SFMono-Regular, Menlo, monospace">101</text>
<rect x="120" y="258" width="86" height="26" rx="6" fill="none" stroke="#99A1B3" stroke-width="2"/>
<text x="163.0" y="276" font-size="13.5" fill="#23272F" font-weight="400" text-anchor="middle" font-family="ui-monospace, SFMono-Regular, Menlo, monospace">110</text>
<rect x="120" y="292" width="86" height="26" rx="6" fill="#C1554D" fill-opacity="0.12" stroke="#C1554D" stroke-width="2"/>
<text x="163.0" y="310" font-size="13.5" fill="#C1554D" font-weight="700" text-anchor="middle" font-family="ui-monospace, SFMono-Regular, Menlo, monospace">111</text>
<rect x="514" y="54" width="86" height="26" rx="6" fill="none" stroke="#99A1B3" stroke-width="2"/>
<text x="557.0" y="72" font-size="13.5" fill="#99A1B3" text-anchor="middle" font-family="ui-monospace, SFMono-Regular, Menlo, monospace">“”</text>
<rect x="514" y="88" width="86" height="26" rx="6" fill="none" stroke="#99A1B3" stroke-width="2"/>
<text x="557.0" y="106" font-size="13.5" fill="#23272F" text-anchor="middle" font-family="ui-monospace, SFMono-Regular, Menlo, monospace">0</text>
<rect x="514" y="122" width="86" height="26" rx="6" fill="none" stroke="#99A1B3" stroke-width="2"/>
<text x="557.0" y="140" font-size="13.5" fill="#23272F" text-anchor="middle" font-family="ui-monospace, SFMono-Regular, Menlo, monospace">1</text>
<rect x="514" y="156" width="86" height="26" rx="6" fill="none" stroke="#99A1B3" stroke-width="2"/>
<text x="557.0" y="174" font-size="13.5" fill="#23272F" text-anchor="middle" font-family="ui-monospace, SFMono-Regular, Menlo, monospace">00</text>
<rect x="514" y="190" width="86" height="26" rx="6" fill="none" stroke="#99A1B3" stroke-width="2"/>
<text x="557.0" y="208" font-size="13.5" fill="#23272F" text-anchor="middle" font-family="ui-monospace, SFMono-Regular, Menlo, monospace">01</text>
<rect x="514" y="224" width="86" height="26" rx="6" fill="none" stroke="#99A1B3" stroke-width="2"/>
<text x="557.0" y="242" font-size="13.5" fill="#23272F" text-anchor="middle" font-family="ui-monospace, SFMono-Regular, Menlo, monospace">10</text>
<rect x="514" y="258" width="86" height="26" rx="6" fill="none" stroke="#99A1B3" stroke-width="2"/>
<text x="557.0" y="276" font-size="13.5" fill="#23272F" text-anchor="middle" font-family="ui-monospace, SFMono-Regular, Menlo, monospace">11</text>
<rect x="514" y="292" width="86" height="26" rx="6" fill="none" stroke="#C1554D" stroke-width="2" stroke-dasharray="5 4"/>
<text x="557.0" y="311" font-size="15" font-weight="700" fill="#C1554D" text-anchor="middle" font-family="ui-monospace, SFMono-Regular, Menlo, monospace">?</text>
<text x="557.0" y="336" font-size="12" font-weight="600" fill="#C1554D" text-anchor="middle">no shorter name left</text>
<line x1="210" y1="67.0" x2="508" y2="67.0" stroke="#99A1B3" stroke-width="1.5" marker-end="url(#pm)"/>
<line x1="210" y1="101.0" x2="508" y2="101.0" stroke="#99A1B3" stroke-width="1.5" marker-end="url(#pm)"/>
<line x1="210" y1="135.0" x2="508" y2="135.0" stroke="#99A1B3" stroke-width="1.5" marker-end="url(#pm)"/>
<line x1="210" y1="169.0" x2="508" y2="169.0" stroke="#99A1B3" stroke-width="1.5" marker-end="url(#pm)"/>
<line x1="210" y1="203.0" x2="508" y2="203.0" stroke="#99A1B3" stroke-width="1.5" marker-end="url(#pm)"/>
<line x1="210" y1="237.0" x2="508" y2="237.0" stroke="#99A1B3" stroke-width="1.5" marker-end="url(#pm)"/>
<line x1="210" y1="271.0" x2="508" y2="271.0" stroke="#99A1B3" stroke-width="1.5" marker-end="url(#pm)"/>
<line x1="210" y1="305.0" x2="508" y2="305.0" stroke="#C1554D" stroke-width="2.5" marker-end="url(#pd)"/>
<text x="360" y="356" font-size="13.5" fill="#99A1B3" text-anchor="middle" font-family="ui-monospace, SFMono-Regular, Menlo, monospace">1 + 2 + 4 = 2³ − 1</text></svg>
