<svg xmlns="http://www.w3.org/2000/svg" viewBox="0 0 340 320" font-family="ui-monospace, SFMono-Regular, Menlo, monospace">
<text x="170" y="30" text-anchor="middle" font-size="18" fill="#23272F">floating point</text>
<rect x="24" y="66" width="30" height="44" rx="7" fill="#087EA4" fill-opacity="0.12" stroke="#087EA4" stroke-width="2"/>
<text x="39" y="95" text-anchor="middle" font-size="20" fill="#23272F">1</text>
<rect x="58" y="66" width="30" height="44" rx="7" fill="#087EA4" fill-opacity="0.12" stroke="#087EA4" stroke-width="2"/>
<text x="73" y="95" text-anchor="middle" font-size="20" fill="#23272F">2</text>
<rect x="92" y="66" width="30" height="44" rx="7" fill="#087EA4" fill-opacity="0.12" stroke="#087EA4" stroke-width="2"/>
<text x="107" y="95" text-anchor="middle" font-size="20" fill="#23272F">3</text>
<rect x="126" y="66" width="30" height="44" rx="7" fill="#087EA4" fill-opacity="0.12" stroke="#087EA4" stroke-width="2"/>
<text x="141" y="95" text-anchor="middle" font-size="20" fill="#23272F">4</text>
<rect x="160" y="66" width="30" height="44" rx="7" fill="#087EA4" fill-opacity="0.12" stroke="#087EA4" stroke-width="2"/>
<text x="175" y="95" text-anchor="middle" font-size="20" fill="#23272F">0</text>
<rect x="194" y="66" width="30" height="44" rx="7" fill="#087EA4" fill-opacity="0.12" stroke="#087EA4" stroke-width="2"/>
<text x="209" y="95" text-anchor="middle" font-size="20" fill="#23272F">0</text>
<rect x="228" y="66" width="30" height="44" rx="7" fill="#087EA4" fill-opacity="0.12" stroke="#087EA4" stroke-width="2"/>
<text x="243" y="95" text-anchor="middle" font-size="20" fill="#23272F">0</text>
<rect x="262" y="66" width="30" height="44" rx="7" fill="#087EA4" fill-opacity="0.12" stroke="#087EA4" stroke-width="2"/>
<text x="277" y="95" text-anchor="middle" font-size="20" fill="#23272F">0</text>
<rect x="302" y="66" width="46" height="44" rx="7" fill="none" stroke="#23272F" stroke-width="2"/>
<text x="325" y="85" text-anchor="middle" font-size="12" fill="#23272F">×10</text>
<text x="325" y="103" text-anchor="middle" font-size="14" fill="#087EA4">n</text>
<text x="158" y="132" text-anchor="middle" font-size="12" fill="#087EA4" font-family="system-ui, sans-serif">every cell significant</text>
<defs><marker id="arf" viewBox="0 0 10 10" refX="9" refY="5" markerWidth="7" markerHeight="7" orient="auto"><path d="M 0 1 L 9 5 L 0 9 z" fill="#23272F"/></marker></defs>
<path d="M 322 60 C 312 52, 174 52, 134 60" fill="none" stroke="#23272F" stroke-width="1.6" marker-end="url(#arf)"/>
<text x="154" y="46" text-anchor="middle" font-size="13" fill="#23272F" font-family="system-ui, sans-serif">the point slides</text>
<text x="24" y="172" text-anchor="start" font-size="15" fill="#23272F">4,096,000 = 4.0960000×10</text>
<text x="246" y="165" text-anchor="start" font-size="11" fill="#23272F">6</text>
<text x="262" y="172" text-anchor="start" font-size="15" fill="#087EA4">✓</text>
<text x="24" y="202" text-anchor="start" font-size="15" fill="#23272F">0.0000012 = 1.2000000×10</text>
<text x="246" y="195" text-anchor="start" font-size="11" fill="#23272F">−6</text>
<text x="272" y="202" text-anchor="start" font-size="15" fill="#087EA4">✓</text>
</svg>