<svg xmlns="http://www.w3.org/2000/svg" viewBox="0 0 340 320" font-family="ui-monospace, SFMono-Regular, Menlo, monospace">
<text x="170" y="30" text-anchor="middle" font-size="18" fill="#F6F7F9">floating point</text>
<rect x="24" y="66" width="30" height="44" rx="7" fill="#149ECA" fill-opacity="0.12" stroke="#149ECA" stroke-width="2"/>
<text x="39" y="95" text-anchor="middle" font-size="20" fill="#F6F7F9">1</text>
<rect x="58" y="66" width="30" height="44" rx="7" fill="#149ECA" fill-opacity="0.12" stroke="#149ECA" stroke-width="2"/>
<text x="73" y="95" text-anchor="middle" font-size="20" fill="#F6F7F9">2</text>
<rect x="92" y="66" width="30" height="44" rx="7" fill="#149ECA" fill-opacity="0.12" stroke="#149ECA" stroke-width="2"/>
<text x="107" y="95" text-anchor="middle" font-size="20" fill="#F6F7F9">3</text>
<rect x="126" y="66" width="30" height="44" rx="7" fill="#149ECA" fill-opacity="0.12" stroke="#149ECA" stroke-width="2"/>
<text x="141" y="95" text-anchor="middle" font-size="20" fill="#F6F7F9">4</text>
<rect x="160" y="66" width="30" height="44" rx="7" fill="#149ECA" fill-opacity="0.12" stroke="#149ECA" stroke-width="2"/>
<text x="175" y="95" text-anchor="middle" font-size="20" fill="#F6F7F9">0</text>
<rect x="194" y="66" width="30" height="44" rx="7" fill="#149ECA" fill-opacity="0.12" stroke="#149ECA" stroke-width="2"/>
<text x="209" y="95" text-anchor="middle" font-size="20" fill="#F6F7F9">0</text>
<rect x="228" y="66" width="30" height="44" rx="7" fill="#149ECA" fill-opacity="0.12" stroke="#149ECA" stroke-width="2"/>
<text x="243" y="95" text-anchor="middle" font-size="20" fill="#F6F7F9">0</text>
<rect x="262" y="66" width="30" height="44" rx="7" fill="#149ECA" fill-opacity="0.12" stroke="#149ECA" stroke-width="2"/>
<text x="277" y="95" text-anchor="middle" font-size="20" fill="#F6F7F9">0</text>
<rect x="302" y="66" width="46" height="44" rx="7" fill="none" stroke="#F6F7F9" stroke-width="2"/>
<text x="325" y="85" text-anchor="middle" font-size="12" fill="#F6F7F9">×10</text>
<text x="325" y="103" text-anchor="middle" font-size="14" fill="#149ECA">n</text>
<text x="158" y="132" text-anchor="middle" font-size="12" fill="#149ECA" font-family="system-ui, sans-serif">every cell significant</text>
<defs><marker id="arf" viewBox="0 0 10 10" refX="9" refY="5" markerWidth="7" markerHeight="7" orient="auto"><path d="M 0 1 L 9 5 L 0 9 z" fill="#F6F7F9"/></marker></defs>
<path d="M 322 60 C 312 52, 174 52, 134 60" fill="none" stroke="#F6F7F9" stroke-width="1.6" marker-end="url(#arf)"/>
<text x="154" y="46" text-anchor="middle" font-size="13" fill="#F6F7F9" font-family="system-ui, sans-serif">the point slides</text>
<text x="24" y="172" text-anchor="start" font-size="15" fill="#F6F7F9">4,096,000 = 4.0960000×10</text>
<text x="246" y="165" text-anchor="start" font-size="11" fill="#F6F7F9">6</text>
<text x="262" y="172" text-anchor="start" font-size="15" fill="#149ECA">✓</text>
<text x="24" y="202" text-anchor="start" font-size="15" fill="#F6F7F9">0.0000012 = 1.2000000×10</text>
<text x="246" y="195" text-anchor="start" font-size="11" fill="#F6F7F9">−6</text>
<text x="272" y="202" text-anchor="start" font-size="15" fill="#149ECA">✓</text>
</svg>