<svg xmlns="http://www.w3.org/2000/svg" viewBox="0 0 720 330" font-family="system-ui, sans-serif">
<text x="60" y="36" text-anchor="start" font-size="15" fill="#F6F7F9">between 1 and 2</text>
<line x1="60" y1="58" x2="660" y2="58" stroke="#99A1B3" stroke-width="2"/>
<line x1="60.0" y1="49" x2="60.0" y2="67" stroke="#99A1B3" stroke-width="1.4"/>
<line x1="64.0" y1="49" x2="64.0" y2="67" stroke="#99A1B3" stroke-width="1.4"/>
<line x1="68.0" y1="49" x2="68.0" y2="67" stroke="#99A1B3" stroke-width="1.4"/>
<line x1="72.0" y1="49" x2="72.0" y2="67" stroke="#99A1B3" stroke-width="1.4"/>
<line x1="76.0" y1="49" x2="76.0" y2="67" stroke="#99A1B3" stroke-width="1.4"/>
<line x1="80.0" y1="49" x2="80.0" y2="67" stroke="#99A1B3" stroke-width="1.4"/>
<line x1="84.0" y1="49" x2="84.0" y2="67" stroke="#99A1B3" stroke-width="1.4"/>
<line x1="88.0" y1="49" x2="88.0" y2="67" stroke="#99A1B3" stroke-width="1.4"/>
<line x1="92.0" y1="49" x2="92.0" y2="67" stroke="#99A1B3" stroke-width="1.4"/>
<line x1="96.0" y1="49" x2="96.0" y2="67" stroke="#99A1B3" stroke-width="1.4"/>
<line x1="100.0" y1="49" x2="100.0" y2="67" stroke="#99A1B3" stroke-width="1.4"/>
<line x1="104.0" y1="49" x2="104.0" y2="67" stroke="#99A1B3" stroke-width="1.4"/>
<line x1="108.0" y1="49" x2="108.0" y2="67" stroke="#99A1B3" stroke-width="1.4"/>
<line x1="112.0" y1="49" x2="112.0" y2="67" stroke="#99A1B3" stroke-width="1.4"/>
<line x1="116.0" y1="49" x2="116.0" y2="67" stroke="#99A1B3" stroke-width="1.4"/>
<line x1="120.0" y1="49" x2="120.0" y2="67" stroke="#99A1B3" stroke-width="1.4"/>
<line x1="124.0" y1="49" x2="124.0" y2="67" stroke="#99A1B3" stroke-width="1.4"/>
<line x1="128.0" y1="49" x2="128.0" y2="67" stroke="#99A1B3" stroke-width="1.4"/>
<line x1="132.0" y1="49" x2="132.0" y2="67" stroke="#99A1B3" stroke-width="1.4"/>
<line x1="136.0" y1="49" x2="136.0" y2="67" stroke="#99A1B3" stroke-width="1.4"/>
<line x1="140.0" y1="49" x2="140.0" y2="67" stroke="#99A1B3" stroke-width="1.4"/>
<line x1="144.0" y1="49" x2="144.0" y2="67" stroke="#99A1B3" stroke-width="1.4"/>
<line x1="148.0" y1="49" x2="148.0" y2="67" stroke="#99A1B3" stroke-width="1.4"/>
<line x1="152.0" y1="49" x2="152.0" y2="67" stroke="#99A1B3" stroke-width="1.4"/>
<line x1="156.0" y1="49" x2="156.0" y2="67" stroke="#99A1B3" stroke-width="1.4"/>
<line x1="160.0" y1="49" x2="160.0" y2="67" stroke="#99A1B3" stroke-width="1.4"/>
<line x1="164.0" y1="49" x2="164.0" y2="67" stroke="#99A1B3" stroke-width="1.4"/>
<line x1="168.0" y1="49" x2="168.0" y2="67" stroke="#99A1B3" stroke-width="1.4"/>
<line x1="172.0" y1="49" x2="172.0" y2="67" stroke="#99A1B3" stroke-width="1.4"/>
<line x1="176.0" y1="49" x2="176.0" y2="67" stroke="#99A1B3" stroke-width="1.4"/>
<line x1="180.0" y1="49" x2="180.0" y2="67" stroke="#99A1B3" stroke-width="1.4"/>
<line x1="184.0" y1="49" x2="184.0" y2="67" stroke="#99A1B3" stroke-width="1.4"/>
<line x1="188.0" y1="49" x2="188.0" y2="67" stroke="#99A1B3" stroke-width="1.4"/>
<line x1="192.0" y1="49" x2="192.0" y2="67" stroke="#99A1B3" stroke-width="1.4"/>
<line x1="196.0" y1="49" x2="196.0" y2="67" stroke="#99A1B3" stroke-width="1.4"/>
<line x1="200.0" y1="49" x2="200.0" y2="67" stroke="#99A1B3" stroke-width="1.4"/>
<line x1="204.0" y1="49" x2="204.0" y2="67" stroke="#99A1B3" stroke-width="1.4"/>
<line x1="208.0" y1="49" x2="208.0" y2="67" stroke="#99A1B3" stroke-width="1.4"/>
<line x1="212.0" y1="49" x2="212.0" y2="67" stroke="#99A1B3" stroke-width="1.4"/>
<line x1="216.0" y1="49" x2="216.0" y2="67" stroke="#99A1B3" stroke-width="1.4"/>
<line x1="220.0" y1="49" x2="220.0" y2="67" stroke="#99A1B3" stroke-width="1.4"/>
<line x1="224.0" y1="49" x2="224.0" y2="67" stroke="#99A1B3" stroke-width="1.4"/>
<line x1="228.0" y1="49" x2="228.0" y2="67" stroke="#99A1B3" stroke-width="1.4"/>
<line x1="232.0" y1="49" x2="232.0" y2="67" stroke="#99A1B3" stroke-width="1.4"/>
<line x1="236.0" y1="49" x2="236.0" y2="67" stroke="#99A1B3" stroke-width="1.4"/>
<line x1="240.0" y1="49" x2="240.0" y2="67" stroke="#99A1B3" stroke-width="1.4"/>
<line x1="244.0" y1="49" x2="244.0" y2="67" stroke="#99A1B3" stroke-width="1.4"/>
<line x1="248.0" y1="49" x2="248.0" y2="67" stroke="#99A1B3" stroke-width="1.4"/>
<line x1="252.0" y1="49" x2="252.0" y2="67" stroke="#99A1B3" stroke-width="1.4"/>
<line x1="256.0" y1="49" x2="256.0" y2="67" stroke="#99A1B3" stroke-width="1.4"/>
<line x1="260.0" y1="49" x2="260.0" y2="67" stroke="#99A1B3" stroke-width="1.4"/>
<line x1="264.0" y1="49" x2="264.0" y2="67" stroke="#99A1B3" stroke-width="1.4"/>
<line x1="268.0" y1="49" x2="268.0" y2="67" stroke="#99A1B3" stroke-width="1.4"/>
<line x1="272.0" y1="49" x2="272.0" y2="67" stroke="#99A1B3" stroke-width="1.4"/>
<line x1="276.0" y1="49" x2="276.0" y2="67" stroke="#99A1B3" stroke-width="1.4"/>
<line x1="280.0" y1="49" x2="280.0" y2="67" stroke="#99A1B3" stroke-width="1.4"/>
<line x1="284.0" y1="49" x2="284.0" y2="67" stroke="#99A1B3" stroke-width="1.4"/>
<line x1="288.0" y1="49" x2="288.0" y2="67" stroke="#99A1B3" stroke-width="1.4"/>
<line x1="292.0" y1="49" x2="292.0" y2="67" stroke="#99A1B3" stroke-width="1.4"/>
<line x1="296.0" y1="49" x2="296.0" y2="67" stroke="#99A1B3" stroke-width="1.4"/>
<line x1="300.0" y1="49" x2="300.0" y2="67" stroke="#99A1B3" stroke-width="1.4"/>
<line x1="304.0" y1="49" x2="304.0" y2="67" stroke="#99A1B3" stroke-width="1.4"/>
<line x1="308.0" y1="49" x2="308.0" y2="67" stroke="#99A1B3" stroke-width="1.4"/>
<line x1="312.0" y1="49" x2="312.0" y2="67" stroke="#99A1B3" stroke-width="1.4"/>
<line x1="316.0" y1="49" x2="316.0" y2="67" stroke="#99A1B3" stroke-width="1.4"/>
<line x1="320.0" y1="49" x2="320.0" y2="67" stroke="#99A1B3" stroke-width="1.4"/>
<line x1="324.0" y1="49" x2="324.0" y2="67" stroke="#99A1B3" stroke-width="1.4"/>
<line x1="328.0" y1="49" x2="328.0" y2="67" stroke="#99A1B3" stroke-width="1.4"/>
<line x1="332.0" y1="49" x2="332.0" y2="67" stroke="#99A1B3" stroke-width="1.4"/>
<line x1="336.0" y1="49" x2="336.0" y2="67" stroke="#99A1B3" stroke-width="1.4"/>
<line x1="340.0" y1="49" x2="340.0" y2="67" stroke="#99A1B3" stroke-width="1.4"/>
<line x1="344.0" y1="49" x2="344.0" y2="67" stroke="#99A1B3" stroke-width="1.4"/>
<line x1="348.0" y1="49" x2="348.0" y2="67" stroke="#99A1B3" stroke-width="1.4"/>
<line x1="352.0" y1="49" x2="352.0" y2="67" stroke="#99A1B3" stroke-width="1.4"/>
<line x1="356.0" y1="49" x2="356.0" y2="67" stroke="#99A1B3" stroke-width="1.4"/>
<line x1="360.0" y1="49" x2="360.0" y2="67" stroke="#99A1B3" stroke-width="1.4"/>
<line x1="364.0" y1="49" x2="364.0" y2="67" stroke="#99A1B3" stroke-width="1.4"/>
<line x1="368.0" y1="49" x2="368.0" y2="67" stroke="#99A1B3" stroke-width="1.4"/>
<line x1="372.0" y1="49" x2="372.0" y2="67" stroke="#99A1B3" stroke-width="1.4"/>
<line x1="376.0" y1="49" x2="376.0" y2="67" stroke="#99A1B3" stroke-width="1.4"/>
<line x1="380.0" y1="49" x2="380.0" y2="67" stroke="#99A1B3" stroke-width="1.4"/>
<line x1="384.0" y1="49" x2="384.0" y2="67" stroke="#99A1B3" stroke-width="1.4"/>
<line x1="388.0" y1="49" x2="388.0" y2="67" stroke="#99A1B3" stroke-width="1.4"/>
<line x1="392.0" y1="49" x2="392.0" y2="67" stroke="#99A1B3" stroke-width="1.4"/>
<line x1="396.0" y1="49" x2="396.0" y2="67" stroke="#99A1B3" stroke-width="1.4"/>
<line x1="400.0" y1="49" x2="400.0" y2="67" stroke="#99A1B3" stroke-width="1.4"/>
<line x1="404.0" y1="49" x2="404.0" y2="67" stroke="#99A1B3" stroke-width="1.4"/>
<line x1="408.0" y1="49" x2="408.0" y2="67" stroke="#99A1B3" stroke-width="1.4"/>
<line x1="412.0" y1="49" x2="412.0" y2="67" stroke="#99A1B3" stroke-width="1.4"/>
<line x1="416.0" y1="49" x2="416.0" y2="67" stroke="#99A1B3" stroke-width="1.4"/>
<line x1="420.0" y1="49" x2="420.0" y2="67" stroke="#99A1B3" stroke-width="1.4"/>
<line x1="424.0" y1="49" x2="424.0" y2="67" stroke="#99A1B3" stroke-width="1.4"/>
<line x1="428.0" y1="49" x2="428.0" y2="67" stroke="#99A1B3" stroke-width="1.4"/>
<line x1="432.0" y1="49" x2="432.0" y2="67" stroke="#99A1B3" stroke-width="1.4"/>
<line x1="436.0" y1="49" x2="436.0" y2="67" stroke="#99A1B3" stroke-width="1.4"/>
<line x1="440.0" y1="49" x2="440.0" y2="67" stroke="#99A1B3" stroke-width="1.4"/>
<line x1="444.0" y1="49" x2="444.0" y2="67" stroke="#99A1B3" stroke-width="1.4"/>
<line x1="448.0" y1="49" x2="448.0" y2="67" stroke="#99A1B3" stroke-width="1.4"/>
<line x1="452.0" y1="49" x2="452.0" y2="67" stroke="#99A1B3" stroke-width="1.4"/>
<line x1="456.0" y1="49" x2="456.0" y2="67" stroke="#99A1B3" stroke-width="1.4"/>
<line x1="460.0" y1="49" x2="460.0" y2="67" stroke="#99A1B3" stroke-width="1.4"/>
<line x1="464.0" y1="49" x2="464.0" y2="67" stroke="#99A1B3" stroke-width="1.4"/>
<line x1="468.0" y1="49" x2="468.0" y2="67" stroke="#99A1B3" stroke-width="1.4"/>
<line x1="472.0" y1="49" x2="472.0" y2="67" stroke="#99A1B3" stroke-width="1.4"/>
<line x1="476.0" y1="49" x2="476.0" y2="67" stroke="#99A1B3" stroke-width="1.4"/>
<line x1="480.0" y1="49" x2="480.0" y2="67" stroke="#99A1B3" stroke-width="1.4"/>
<line x1="484.0" y1="49" x2="484.0" y2="67" stroke="#99A1B3" stroke-width="1.4"/>
<line x1="488.0" y1="49" x2="488.0" y2="67" stroke="#99A1B3" stroke-width="1.4"/>
<line x1="492.0" y1="49" x2="492.0" y2="67" stroke="#99A1B3" stroke-width="1.4"/>
<line x1="496.0" y1="49" x2="496.0" y2="67" stroke="#99A1B3" stroke-width="1.4"/>
<line x1="500.0" y1="49" x2="500.0" y2="67" stroke="#99A1B3" stroke-width="1.4"/>
<line x1="504.0" y1="49" x2="504.0" y2="67" stroke="#99A1B3" stroke-width="1.4"/>
<line x1="508.0" y1="49" x2="508.0" y2="67" stroke="#99A1B3" stroke-width="1.4"/>
<line x1="512.0" y1="49" x2="512.0" y2="67" stroke="#99A1B3" stroke-width="1.4"/>
<line x1="516.0" y1="49" x2="516.0" y2="67" stroke="#99A1B3" stroke-width="1.4"/>
<line x1="520.0" y1="49" x2="520.0" y2="67" stroke="#99A1B3" stroke-width="1.4"/>
<line x1="524.0" y1="49" x2="524.0" y2="67" stroke="#99A1B3" stroke-width="1.4"/>
<line x1="528.0" y1="49" x2="528.0" y2="67" stroke="#99A1B3" stroke-width="1.4"/>
<line x1="532.0" y1="49" x2="532.0" y2="67" stroke="#99A1B3" stroke-width="1.4"/>
<line x1="536.0" y1="49" x2="536.0" y2="67" stroke="#99A1B3" stroke-width="1.4"/>
<line x1="540.0" y1="49" x2="540.0" y2="67" stroke="#99A1B3" stroke-width="1.4"/>
<line x1="544.0" y1="49" x2="544.0" y2="67" stroke="#99A1B3" stroke-width="1.4"/>
<line x1="548.0" y1="49" x2="548.0" y2="67" stroke="#99A1B3" stroke-width="1.4"/>
<line x1="552.0" y1="49" x2="552.0" y2="67" stroke="#99A1B3" stroke-width="1.4"/>
<line x1="556.0" y1="49" x2="556.0" y2="67" stroke="#99A1B3" stroke-width="1.4"/>
<line x1="560.0" y1="49" x2="560.0" y2="67" stroke="#99A1B3" stroke-width="1.4"/>
<line x1="564.0" y1="49" x2="564.0" y2="67" stroke="#99A1B3" stroke-width="1.4"/>
<line x1="568.0" y1="49" x2="568.0" y2="67" stroke="#99A1B3" stroke-width="1.4"/>
<line x1="572.0" y1="49" x2="572.0" y2="67" stroke="#99A1B3" stroke-width="1.4"/>
<line x1="576.0" y1="49" x2="576.0" y2="67" stroke="#99A1B3" stroke-width="1.4"/>
<line x1="580.0" y1="49" x2="580.0" y2="67" stroke="#99A1B3" stroke-width="1.4"/>
<line x1="584.0" y1="49" x2="584.0" y2="67" stroke="#99A1B3" stroke-width="1.4"/>
<line x1="588.0" y1="49" x2="588.0" y2="67" stroke="#99A1B3" stroke-width="1.4"/>
<line x1="592.0" y1="49" x2="592.0" y2="67" stroke="#99A1B3" stroke-width="1.4"/>
<line x1="596.0" y1="49" x2="596.0" y2="67" stroke="#99A1B3" stroke-width="1.4"/>
<line x1="600.0" y1="49" x2="600.0" y2="67" stroke="#99A1B3" stroke-width="1.4"/>
<line x1="604.0" y1="49" x2="604.0" y2="67" stroke="#99A1B3" stroke-width="1.4"/>
<line x1="608.0" y1="49" x2="608.0" y2="67" stroke="#99A1B3" stroke-width="1.4"/>
<line x1="612.0" y1="49" x2="612.0" y2="67" stroke="#99A1B3" stroke-width="1.4"/>
<line x1="616.0" y1="49" x2="616.0" y2="67" stroke="#99A1B3" stroke-width="1.4"/>
<line x1="620.0" y1="49" x2="620.0" y2="67" stroke="#99A1B3" stroke-width="1.4"/>
<line x1="624.0" y1="49" x2="624.0" y2="67" stroke="#99A1B3" stroke-width="1.4"/>
<line x1="628.0" y1="49" x2="628.0" y2="67" stroke="#99A1B3" stroke-width="1.4"/>
<line x1="632.0" y1="49" x2="632.0" y2="67" stroke="#99A1B3" stroke-width="1.4"/>
<line x1="636.0" y1="49" x2="636.0" y2="67" stroke="#99A1B3" stroke-width="1.4"/>
<line x1="640.0" y1="49" x2="640.0" y2="67" stroke="#99A1B3" stroke-width="1.4"/>
<line x1="644.0" y1="49" x2="644.0" y2="67" stroke="#99A1B3" stroke-width="1.4"/>
<line x1="648.0" y1="49" x2="648.0" y2="67" stroke="#99A1B3" stroke-width="1.4"/>
<line x1="652.0" y1="49" x2="652.0" y2="67" stroke="#99A1B3" stroke-width="1.4"/>
<line x1="656.0" y1="49" x2="656.0" y2="67" stroke="#99A1B3" stroke-width="1.4"/>
<line x1="660.0" y1="49" x2="660.0" y2="67" stroke="#99A1B3" stroke-width="1.4"/>
<text x="660" y="86" text-anchor="end" font-size="14" fill="#149ECA">gap = 2⁻⁵² — ≈4.5 quintillion steps</text>
<text x="60" y="130" text-anchor="start" font-size="15" fill="#F6F7F9">between 2⁵² and 2⁵³</text>
<line x1="60" y1="152" x2="660" y2="152" stroke="#99A1B3" stroke-width="2"/>
<line x1="60.0" y1="143" x2="60.0" y2="161" stroke="#99A1B3" stroke-width="1.4"/>
<line x1="100.0" y1="143" x2="100.0" y2="161" stroke="#99A1B3" stroke-width="1.4"/>
<line x1="140.0" y1="143" x2="140.0" y2="161" stroke="#99A1B3" stroke-width="1.4"/>
<line x1="180.0" y1="143" x2="180.0" y2="161" stroke="#99A1B3" stroke-width="1.4"/>
<line x1="220.0" y1="143" x2="220.0" y2="161" stroke="#99A1B3" stroke-width="1.4"/>
<line x1="260.0" y1="143" x2="260.0" y2="161" stroke="#99A1B3" stroke-width="1.4"/>
<line x1="300.0" y1="143" x2="300.0" y2="161" stroke="#99A1B3" stroke-width="1.4"/>
<line x1="340.0" y1="143" x2="340.0" y2="161" stroke="#99A1B3" stroke-width="1.4"/>
<line x1="380.0" y1="143" x2="380.0" y2="161" stroke="#99A1B3" stroke-width="1.4"/>
<line x1="420.0" y1="143" x2="420.0" y2="161" stroke="#99A1B3" stroke-width="1.4"/>
<line x1="460.0" y1="143" x2="460.0" y2="161" stroke="#99A1B3" stroke-width="1.4"/>
<line x1="500.0" y1="143" x2="500.0" y2="161" stroke="#99A1B3" stroke-width="1.4"/>
<line x1="540.0" y1="143" x2="540.0" y2="161" stroke="#99A1B3" stroke-width="1.4"/>
<line x1="580.0" y1="143" x2="580.0" y2="161" stroke="#99A1B3" stroke-width="1.4"/>
<line x1="620.0" y1="143" x2="620.0" y2="161" stroke="#99A1B3" stroke-width="1.4"/>
<line x1="660.0" y1="143" x2="660.0" y2="161" stroke="#99A1B3" stroke-width="1.4"/>
<text x="660" y="180" text-anchor="end" font-size="14" fill="#F6F7F9">gap = exactly 1 — only whole numbers survive</text>
<text x="60" y="224" text-anchor="start" font-size="15" fill="#F6F7F9">above 2⁵³</text>
<line x1="60" y1="246" x2="660" y2="246" stroke="#99A1B3" stroke-width="2"/>
<line x1="60.0" y1="237" x2="60.0" y2="255" stroke="#99A1B3" stroke-width="1.4"/>
<line x1="140.0" y1="237" x2="140.0" y2="255" stroke="#99A1B3" stroke-width="1.4"/>
<line x1="220.0" y1="237" x2="220.0" y2="255" stroke="#99A1B3" stroke-width="1.4"/>
<line x1="300.0" y1="237" x2="300.0" y2="255" stroke="#99A1B3" stroke-width="1.4"/>
<line x1="380.0" y1="237" x2="380.0" y2="255" stroke="#99A1B3" stroke-width="1.4"/>
<line x1="460.0" y1="237" x2="460.0" y2="255" stroke="#99A1B3" stroke-width="1.4"/>
<line x1="540.0" y1="237" x2="540.0" y2="255" stroke="#99A1B3" stroke-width="1.4"/>
<line x1="620.0" y1="237" x2="620.0" y2="255" stroke="#99A1B3" stroke-width="1.4"/>
<text x="660" y="274" text-anchor="end" font-size="14" fill="#E06C60">gap = 2 — odd numbers vanish</text>
<text x="100" y="250" text-anchor="middle" font-size="16" fill="#E06C60" font-family="ui-monospace, SFMono-Regular, Menlo, monospace">✗</text>
<text x="160" y="292" text-anchor="middle" font-size="12" fill="#E06C60" font-family="ui-monospace, SFMono-Regular, Menlo, monospace">9,007,199,254,740,993 is missing</text>
<text x="360" y="322" text-anchor="middle" font-size="14" fill="#99A1B3">same 53 significant bits everywhere — the absolute gap doubles with the magnitude</text>
</svg>