<svg xmlns="http://www.w3.org/2000/svg" viewBox="0 0 720 320" font-family="system-ui, sans-serif">
<path d="M 60.0 150.0 L 60.7 143.5 L 61.3 137.0 L 62.0 130.6 L 62.7 124.3 L 63.3 118.2 L 64.0 112.2 L 64.7 106.5 L 65.3 101.0 L 66.0 95.8 L 66.7 91.0 L 67.3 86.4 L 68.0 82.3 L 68.7 78.6 L 69.3 75.2 L 70.0 72.3 L 70.7 69.9 L 71.3 68.0 L 72.0 66.5 L 72.7 65.5 L 73.3 65.1 L 74.0 65.1 L 74.7 65.6 L 75.3 66.6 L 76.0 68.1 L 76.7 70.1 L 77.3 72.6 L 78.0 75.5 L 78.7 78.9 L 79.3 82.7 L 80.0 86.8 L 80.7 91.4 L 81.3 96.3 L 82.0 101.5 L 82.7 107.0 L 83.3 112.7 L 84.0 118.7 L 84.7 124.9 L 85.3 131.2 L 86.0 137.6 L 86.7 144.1 L 87.3 150.6 L 88.0 157.1 L 88.7 163.6 L 89.3 170.0 L 90.0 176.3 L 90.7 182.4 L 91.3 188.3 L 92.0 194.0 L 92.7 199.5 L 93.3 204.6 L 94.0 209.5 L 94.7 214.0 L 95.3 218.1 L 96.0 221.8 L 96.7 225.1 L 97.3 227.9 L 98.0 230.3 L 98.7 232.2 L 99.3 233.6 L 100.0 234.5 L 100.7 235.0 L 101.3 234.9 L 102.0 234.3 L 102.7 233.3 L 103.3 231.7 L 104.0 229.7 L 104.7 227.2 L 105.3 224.2 L 106.0 220.8 L 106.7 217.0 L 107.3 212.8 L 108.0 208.2 L 108.7 203.3 L 109.3 198.0 L 110.0 192.5 L 110.7 186.7 L 111.3 180.7 L 112.0 174.6 L 112.7 168.3 L 113.3 161.8 L 114.0 155.3 L 114.7 148.8 L 115.3 142.3 L 116.0 135.8 L 116.7 129.4 L 117.3 123.2 L 118.0 117.1 L 118.7 111.1 L 119.3 105.5 L 120.0 100.0 L 120.7 94.9 L 121.3 90.1 L 122.0 85.7 L 122.7 81.6 L 123.3 77.9 L 124.0 74.7 L 124.7 71.9 L 125.3 69.5 L 126.0 67.7 L 126.7 66.3 L 127.3 65.4 L 128.0 65.0 L 128.7 65.1 L 129.3 65.7 L 130.0 66.9 L 130.7 68.5 L 131.3 70.5 L 132.0 73.1 L 132.7 76.1 L 133.3 79.5 L 134.0 83.4 L 134.7 87.6 L 135.3 92.2 L 136.0 97.2 L 136.7 102.5 L 137.3 108.0 L 138.0 113.8 L 138.7 119.8 L 139.3 126.0 L 140.0 132.3 L 140.7 138.8 L 141.3 145.3 L 142.0 151.8 L 142.7 158.3 L 143.3 164.8 L 144.0 171.1 L 144.7 177.4 L 145.3 183.5 L 146.0 189.4 L 146.7 195.0 L 147.3 200.4 L 148.0 205.5 L 148.7 210.3 L 149.3 214.7 L 150.0 218.8 L 150.7 222.4 L 151.3 225.6 L 152.0 228.4 L 152.7 230.7 L 153.3 232.5 L 154.0 233.8 L 154.7 234.7 L 155.3 235.0 L 156.0 234.8 L 156.7 234.2 L 157.3 233.0 L 158.0 231.4 L 158.7 229.2 L 159.3 226.7 L 160.0 223.6 L 160.7 220.1 L 161.3 216.2 L 162.0 212.0 L 162.7 207.3 L 163.3 202.3 L 164.0 197.0 L 164.7 191.5 L 165.3 185.7 L 166.0 179.6 L 166.7 173.4 L 167.3 167.1 L 168.0 160.7 L 168.7 154.2 L 169.3 147.6 L 170.0 141.1 L 170.7 134.7 L 171.3 128.3 L 172.0 122.0 L 172.7 116.0 L 173.3 110.1 L 174.0 104.5 L 174.7 99.1 L 175.3 94.0 L 176.0 89.3 L 176.7 84.9 L 177.3 80.9 L 178.0 77.3 L 178.7 74.1 L 179.3 71.4 L 180.0 69.2 L 180.7 67.4 L 181.3 66.1 L 182.0 65.3 L 182.7 65.0 L 183.3 65.2 L 184.0 65.9 L 184.7 67.1 L 185.3 68.8 L 186.0 71.0 L 186.7 73.6 L 187.3 76.7 L 188.0 80.2 L 188.7 84.1 L 189.3 88.4 L 190.0 93.1 L 190.7 98.1 L 191.3 103.5 L 192.0 109.1 L 192.7 114.9 L 193.3 120.9 L 194.0 127.1 L 194.7 133.5 L 195.3 139.9 L 196.0 146.4 L 196.7 153.0 L 197.3 159.5 L 198.0 165.9 L 198.7 172.3 L 199.3 178.5 L 200.0 184.6 L 200.7 190.4 L 201.3 196.0 L 202.0 201.4 L 202.7 206.4 L 203.3 211.1 L 204.0 215.5 L 204.7 219.5 L 205.3 223.0 L 206.0 226.1 L 206.7 228.8 L 207.3 231.0 L 208.0 232.8 L 208.7 234.0 L 209.3 234.7 L 210.0 235.0 L 210.7 234.7 L 211.3 234.0 L 212.0 232.8 L 212.7 231.0 L 213.3 228.8 L 214.0 226.1 L 214.7 223.0 L 215.3 219.5 L 216.0 215.5 L 216.7 211.1 L 217.3 206.4 L 218.0 201.4 L 218.7 196.0 L 219.3 190.4 L 220.0 184.6 L 220.7 178.5 L 221.3 172.3 L 222.0 165.9 L 222.7 159.5 L 223.3 153.0 L 224.0 146.4 L 224.7 139.9 L 225.3 133.5 L 226.0 127.1 L 226.7 120.9 L 227.3 114.9 L 228.0 109.1 L 228.7 103.5 L 229.3 98.1 L 230.0 93.1 L 230.7 88.4 L 231.3 84.1 L 232.0 80.2 L 232.7 76.7 L 233.3 73.6 L 234.0 71.0 L 234.7 68.8 L 235.3 67.1 L 236.0 65.9 L 236.7 65.2 L 237.3 65.0 L 238.0 65.3 L 238.7 66.1 L 239.3 67.4 L 240.0 69.2 L 240.7 71.4 L 241.3 74.1 L 242.0 77.3 L 242.7 80.9 L 243.3 84.9 L 244.0 89.3 L 244.7 94.0 L 245.3 99.1 L 246.0 104.5 L 246.7 110.1 L 247.3 116.0 L 248.0 122.0 L 248.7 128.3 L 249.3 134.7 L 250.0 141.1 L 250.7 147.6 L 251.3 154.2 L 252.0 160.7 L 252.7 167.1 L 253.3 173.4 L 254.0 179.6 L 254.7 185.7 L 255.3 191.5 L 256.0 197.0 L 256.7 202.3 L 257.3 207.3 L 258.0 212.0 L 258.7 216.2 L 259.3 220.1 L 260.0 223.6 L 260.7 226.7 L 261.3 229.2 L 262.0 231.4 L 262.7 233.0 L 263.3 234.2 L 264.0 234.8 L 264.7 235.0 L 265.3 234.7 L 266.0 233.8 L 266.7 232.5 L 267.3 230.7 L 268.0 228.4 L 268.7 225.6 L 269.3 222.4 L 270.0 218.8 L 270.7 214.7 L 271.3 210.3 L 272.0 205.5 L 272.7 200.4 L 273.3 195.0 L 274.0 189.4 L 274.7 183.5 L 275.3 177.4 L 276.0 171.1 L 276.7 164.8 L 277.3 158.3 L 278.0 151.8 L 278.7 145.3 L 279.3 138.8 L 280.0 132.3 L 280.7 126.0 L 281.3 119.8 L 282.0 113.8 L 282.7 108.0 L 283.3 102.5 L 284.0 97.2 L 284.7 92.2 L 285.3 87.6 L 286.0 83.4 L 286.7 79.5 L 287.3 76.1 L 288.0 73.1 L 288.7 70.5 L 289.3 68.5 L 290.0 66.9 L 290.7 65.7 L 291.3 65.1 L 292.0 65.0 L 292.7 65.4 L 293.3 66.3 L 294.0 67.7 L 294.7 69.5 L 295.3 71.9 L 296.0 74.7 L 296.7 77.9 L 297.3 81.6 L 298.0 85.7 L 298.7 90.1 L 299.3 94.9 L 300.0 100.0 L 300.7 105.5 L 301.3 111.1 L 302.0 117.1 L 302.7 123.2 L 303.3 129.4 L 304.0 135.8 L 304.7 142.3 L 305.3 148.8 L 306.0 155.3 L 306.7 161.8 L 307.3 168.3 L 308.0 174.6 L 308.7 180.7 L 309.3 186.7 L 310.0 192.5 L 310.7 198.0 L 311.3 203.3 L 312.0 208.2 L 312.7 212.8 L 313.3 217.0 L 314.0 220.8 L 314.7 224.2 L 315.3 227.2 L 316.0 229.7 L 316.7 231.7 L 317.3 233.3 L 318.0 234.3 L 318.7 234.9 L 319.3 235.0 L 320.0 234.5 L 320.7 233.6 L 321.3 232.2 L 322.0 230.3 L 322.7 227.9 L 323.3 225.1 L 324.0 221.8 L 324.7 218.1 L 325.3 214.0 L 326.0 209.5 L 326.7 204.6 L 327.3 199.5 L 328.0 194.0 L 328.7 188.3 L 329.3 182.4 L 330.0 176.3 L 330.7 170.0 L 331.3 163.6 L 332.0 157.1 L 332.7 150.6 L 333.3 144.1 L 334.0 137.6 L 334.7 131.2 L 335.3 124.9 L 336.0 118.7 L 336.7 112.7 L 337.3 107.0 L 338.0 101.5 L 338.7 96.3 L 339.3 91.4 L 340.0 86.8 L 340.7 82.7 L 341.3 78.9 L 342.0 75.5 L 342.7 72.6 L 343.3 70.1 L 344.0 68.1 L 344.7 66.6 L 345.3 65.6 L 346.0 65.1 L 346.7 65.1 L 347.3 65.5 L 348.0 66.5 L 348.7 68.0 L 349.3 69.9 L 350.0 72.3 L 350.7 75.2 L 351.3 78.6 L 352.0 82.3 L 352.7 86.4 L 353.3 91.0 L 354.0 95.8 L 354.7 101.0 L 355.3 106.5 L 356.0 112.2 L 356.7 118.2 L 357.3 124.3 L 358.0 130.6 L 358.7 137.0 L 359.3 143.5 L 360.0 150.0 L 360.7 156.5 L 361.3 163.0 L 362.0 169.4 L 362.7 175.7 L 363.3 181.8 L 364.0 187.8 L 364.7 193.5 L 365.3 199.0 L 366.0 204.2 L 366.7 209.0 L 367.3 213.6 L 368.0 217.7 L 368.7 221.4 L 369.3 224.8 L 370.0 227.7 L 370.7 230.1 L 371.3 232.0 L 372.0 233.5 L 372.7 234.5 L 373.3 234.9 L 374.0 234.9 L 374.7 234.4 L 375.3 233.4 L 376.0 231.9 L 376.7 229.9 L 377.3 227.4 L 378.0 224.5 L 378.7 221.1 L 379.3 217.3 L 380.0 213.2 L 380.7 208.6 L 381.3 203.7 L 382.0 198.5 L 382.7 193.0 L 383.3 187.3 L 384.0 181.3 L 384.7 175.1 L 385.3 168.8 L 386.0 162.4 L 386.7 155.9 L 387.3 149.4 L 388.0 142.9 L 388.7 136.4 L 389.3 130.0 L 390.0 123.7 L 390.7 117.6 L 391.3 111.7 L 392.0 106.0 L 392.7 100.5 L 393.3 95.4 L 394.0 90.5 L 394.7 86.0 L 395.3 81.9 L 396.0 78.2 L 396.7 74.9 L 397.3 72.1 L 398.0 69.7 L 398.7 67.8 L 399.3 66.4 L 400.0 65.5 L 400.7 65.0 L 401.3 65.1 L 402.0 65.7 L 402.7 66.7 L 403.3 68.3 L 404.0 70.3 L 404.7 72.8 L 405.3 75.8 L 406.0 79.2 L 406.7 83.0 L 407.3 87.2 L 408.0 91.8 L 408.7 96.7 L 409.3 102.0 L 410.0 107.5 L 410.7 113.3 L 411.3 119.3 L 412.0 125.4 L 412.7 131.7 L 413.3 138.2 L 414.0 144.7 L 414.7 151.2 L 415.3 157.7 L 416.0 164.2 L 416.7 170.6 L 417.3 176.8 L 418.0 182.9 L 418.7 188.9 L 419.3 194.5 L 420.0 200.0 L 420.7 205.1 L 421.3 209.9 L 422.0 214.3 L 422.7 218.4 L 423.3 222.1 L 424.0 225.3 L 424.7 228.1 L 425.3 230.5 L 426.0 232.3 L 426.7 233.7 L 427.3 234.6 L 428.0 235.0 L 428.7 234.9 L 429.3 234.3 L 430.0 233.1 L 430.7 231.5 L 431.3 229.5 L 432.0 226.9 L 432.7 223.9 L 433.3 220.5 L 434.0 216.6 L 434.7 212.4 L 435.3 207.8 L 436.0 202.8 L 436.7 197.5 L 437.3 192.0 L 438.0 186.2 L 438.7 180.2 L 439.3 174.0 L 440.0 167.7 L 440.7 161.2 L 441.3 154.7 L 442.0 148.2 L 442.7 141.7 L 443.3 135.2 L 444.0 128.9 L 444.7 122.6 L 445.3 116.5 L 446.0 110.6 L 446.7 105.0 L 447.3 99.6 L 448.0 94.5 L 448.7 89.7 L 449.3 85.3 L 450.0 81.2 L 450.7 77.6 L 451.3 74.4 L 452.0 71.6 L 452.7 69.3 L 453.3 67.5 L 454.0 66.2 L 454.7 65.3 L 455.3 65.0 L 456.0 65.2 L 456.7 65.8 L 457.3 67.0 L 458.0 68.6 L 458.7 70.8 L 459.3 73.3 L 460.0 76.4 L 460.7 79.9 L 461.3 83.8 L 462.0 88.0 L 462.7 92.7 L 463.3 97.7 L 464.0 103.0 L 464.7 108.5 L 465.3 114.3 L 466.0 120.4 L 466.7 126.6 L 467.3 132.9 L 468.0 139.3 L 468.7 145.8 L 469.3 152.4 L 470.0 158.9 L 470.7 165.3 L 471.3 171.7 L 472.0 178.0 L 472.7 184.0 L 473.3 189.9 L 474.0 195.5 L 474.7 200.9 L 475.3 206.0 L 476.0 210.7 L 476.7 215.1 L 477.3 219.1 L 478.0 222.7 L 478.7 225.9 L 479.3 228.6 L 480.0 230.8 L 480.7 232.6 L 481.3 233.9 L 482.0 234.7 L 482.7 235.0 L 483.3 234.8 L 484.0 234.1 L 484.7 232.9 L 485.3 231.2 L 486.0 229.0 L 486.7 226.4 L 487.3 223.3 L 488.0 219.8 L 488.7 215.9 L 489.3 211.6 L 490.0 206.9 L 490.7 201.9 L 491.3 196.5 L 492.0 190.9 L 492.7 185.1 L 493.3 179.1 L 494.0 172.9 L 494.7 166.5 L 495.3 160.1 L 496.0 153.6 L 496.7 147.0 L 497.3 140.5 L 498.0 134.1 L 498.7 127.7 L 499.3 121.5 L 500.0 115.4 L 500.7 109.6 L 501.3 104.0 L 502.0 98.6 L 502.7 93.6 L 503.3 88.9 L 504.0 84.5 L 504.7 80.5 L 505.3 77.0 L 506.0 73.9 L 506.7 71.2 L 507.3 69.0 L 508.0 67.2 L 508.7 66.0 L 509.3 65.3 L 510.0 65.0 L 510.7 65.3 L 511.3 66.0 L 512.0 67.2 L 512.7 69.0 L 513.3 71.2 L 514.0 73.9 L 514.7 77.0 L 515.3 80.5 L 516.0 84.5 L 516.7 88.9 L 517.3 93.6 L 518.0 98.6 L 518.7 104.0 L 519.3 109.6 L 520.0 115.4 L 520.7 121.5 L 521.3 127.7 L 522.0 134.1 L 522.7 140.5 L 523.3 147.0 L 524.0 153.6 L 524.7 160.1 L 525.3 166.5 L 526.0 172.9 L 526.7 179.1 L 527.3 185.1 L 528.0 190.9 L 528.7 196.5 L 529.3 201.9 L 530.0 206.9 L 530.7 211.6 L 531.3 215.9 L 532.0 219.8 L 532.7 223.3 L 533.3 226.4 L 534.0 229.0 L 534.7 231.2 L 535.3 232.9 L 536.0 234.1 L 536.7 234.8 L 537.3 235.0 L 538.0 234.7 L 538.7 233.9 L 539.3 232.6 L 540.0 230.8 L 540.7 228.6 L 541.3 225.9 L 542.0 222.7 L 542.7 219.1 L 543.3 215.1 L 544.0 210.7 L 544.7 206.0 L 545.3 200.9 L 546.0 195.5 L 546.7 189.9 L 547.3 184.0 L 548.0 178.0 L 548.7 171.7 L 549.3 165.3 L 550.0 158.9 L 550.7 152.4 L 551.3 145.8 L 552.0 139.3 L 552.7 132.9 L 553.3 126.6 L 554.0 120.4 L 554.7 114.3 L 555.3 108.5 L 556.0 103.0 L 556.7 97.7 L 557.3 92.7 L 558.0 88.0 L 558.7 83.8 L 559.3 79.9 L 560.0 76.4 L 560.7 73.3 L 561.3 70.8 L 562.0 68.6 L 562.7 67.0 L 563.3 65.8 L 564.0 65.2 L 564.7 65.0 L 565.3 65.3 L 566.0 66.2 L 566.7 67.5 L 567.3 69.3 L 568.0 71.6 L 568.7 74.4 L 569.3 77.6 L 570.0 81.2 L 570.7 85.3 L 571.3 89.7 L 572.0 94.5 L 572.7 99.6 L 573.3 105.0 L 574.0 110.6 L 574.7 116.5 L 575.3 122.6 L 576.0 128.9 L 576.7 135.2 L 577.3 141.7 L 578.0 148.2 L 578.7 154.7 L 579.3 161.2 L 580.0 167.7 L 580.7 174.0 L 581.3 180.2 L 582.0 186.2 L 582.7 192.0 L 583.3 197.5 L 584.0 202.8 L 584.7 207.8 L 585.3 212.4 L 586.0 216.6 L 586.7 220.5 L 587.3 223.9 L 588.0 226.9 L 588.7 229.5 L 589.3 231.5 L 590.0 233.1 L 590.7 234.3 L 591.3 234.9 L 592.0 235.0 L 592.7 234.6 L 593.3 233.7 L 594.0 232.3 L 594.7 230.5 L 595.3 228.1 L 596.0 225.3 L 596.7 222.1 L 597.3 218.4 L 598.0 214.3 L 598.7 209.9 L 599.3 205.1 L 600.0 200.0 L 600.7 194.5 L 601.3 188.9 L 602.0 182.9 L 602.7 176.8 L 603.3 170.6 L 604.0 164.2 L 604.7 157.7 L 605.3 151.2 L 606.0 144.7 L 606.7 138.2 L 607.3 131.7 L 608.0 125.4 L 608.7 119.3 L 609.3 113.3 L 610.0 107.5 L 610.7 102.0 L 611.3 96.7 L 612.0 91.8 L 612.7 87.2 L 613.3 83.0 L 614.0 79.2 L 614.7 75.8 L 615.3 72.8 L 616.0 70.3 L 616.7 68.3 L 617.3 66.7 L 618.0 65.7 L 618.7 65.1 L 619.3 65.0 L 620.0 65.5 L 620.7 66.4 L 621.3 67.8 L 622.0 69.7 L 622.7 72.1 L 623.3 74.9 L 624.0 78.2 L 624.7 81.9 L 625.3 86.0 L 626.0 90.5 L 626.7 95.4 L 627.3 100.5 L 628.0 106.0 L 628.7 111.7 L 629.3 117.6 L 630.0 123.7 L 630.7 130.0 L 631.3 136.4 L 632.0 142.9 L 632.7 149.4 L 633.3 155.9 L 634.0 162.4 L 634.7 168.8 L 635.3 175.1 L 636.0 181.3 L 636.7 187.3 L 637.3 193.0 L 638.0 198.5 L 638.7 203.7 L 639.3 208.6 L 640.0 213.2 L 640.7 217.3 L 641.3 221.1 L 642.0 224.5 L 642.7 227.4 L 643.3 229.9 L 644.0 231.9 L 644.7 233.4 L 645.3 234.4 L 646.0 234.9 L 646.7 234.9 L 647.3 234.5 L 648.0 233.5 L 648.7 232.0 L 649.3 230.1 L 650.0 227.7 L 650.7 224.8 L 651.3 221.4 L 652.0 217.7 L 652.7 213.6 L 653.3 209.0 L 654.0 204.2 L 654.7 199.0 L 655.3 193.5 L 656.0 187.8 L 656.7 181.8 L 657.3 175.7 L 658.0 169.4 L 658.7 163.0 L 659.3 156.5 L 660.0 150.0" fill="none" stroke="#99A1B3" stroke-width="1.6"/>
<path d="M 60.0 150.0 L 62.0 151.8 L 64.0 153.6 L 66.0 155.3 L 68.0 157.1 L 70.0 158.9 L 72.0 160.7 L 74.0 162.4 L 76.0 164.2 L 78.0 165.9 L 80.0 167.7 L 82.0 169.4 L 84.0 171.1 L 86.0 172.9 L 88.0 174.6 L 90.0 176.3 L 92.0 178.0 L 94.0 179.6 L 96.0 181.3 L 98.0 182.9 L 100.0 184.6 L 102.0 186.2 L 104.0 187.8 L 106.0 189.4 L 108.0 190.9 L 110.0 192.5 L 112.0 194.0 L 114.0 195.5 L 116.0 197.0 L 118.0 198.5 L 120.0 200.0 L 122.0 201.4 L 124.0 202.8 L 126.0 204.2 L 128.0 205.5 L 130.0 206.9 L 132.0 208.2 L 134.0 209.5 L 136.0 210.7 L 138.0 212.0 L 140.0 213.2 L 142.0 214.3 L 144.0 215.5 L 146.0 216.6 L 148.0 217.7 L 150.0 218.8 L 152.0 219.8 L 154.0 220.8 L 156.0 221.8 L 158.0 222.7 L 160.0 223.6 L 162.0 224.5 L 164.0 225.3 L 166.0 226.1 L 168.0 226.9 L 170.0 227.7 L 172.0 228.4 L 174.0 229.0 L 176.0 229.7 L 178.0 230.3 L 180.0 230.8 L 182.0 231.4 L 184.0 231.9 L 186.0 232.3 L 188.0 232.8 L 190.0 233.1 L 192.0 233.5 L 194.0 233.8 L 196.0 234.1 L 198.0 234.3 L 200.0 234.5 L 202.0 234.7 L 204.0 234.8 L 206.0 234.9 L 208.0 235.0 L 210.0 235.0 L 212.0 235.0 L 214.0 234.9 L 216.0 234.8 L 218.0 234.7 L 220.0 234.5 L 222.0 234.3 L 224.0 234.1 L 226.0 233.8 L 228.0 233.5 L 230.0 233.1 L 232.0 232.8 L 234.0 232.3 L 236.0 231.9 L 238.0 231.4 L 240.0 230.8 L 242.0 230.3 L 244.0 229.7 L 246.0 229.0 L 248.0 228.4 L 250.0 227.7 L 252.0 226.9 L 254.0 226.1 L 256.0 225.3 L 258.0 224.5 L 260.0 223.6 L 262.0 222.7 L 264.0 221.8 L 266.0 220.8 L 268.0 219.8 L 270.0 218.8 L 272.0 217.7 L 274.0 216.6 L 276.0 215.5 L 278.0 214.3 L 280.0 213.2 L 282.0 212.0 L 284.0 210.7 L 286.0 209.5 L 288.0 208.2 L 290.0 206.9 L 292.0 205.5 L 294.0 204.2 L 296.0 202.8 L 298.0 201.4 L 300.0 200.0 L 302.0 198.5 L 304.0 197.0 L 306.0 195.5 L 308.0 194.0 L 310.0 192.5 L 312.0 190.9 L 314.0 189.4 L 316.0 187.8 L 318.0 186.2 L 320.0 184.6 L 322.0 182.9 L 324.0 181.3 L 326.0 179.6 L 328.0 178.0 L 330.0 176.3 L 332.0 174.6 L 334.0 172.9 L 336.0 171.1 L 338.0 169.4 L 340.0 167.7 L 342.0 165.9 L 344.0 164.2 L 346.0 162.4 L 348.0 160.7 L 350.0 158.9 L 352.0 157.1 L 354.0 155.3 L 356.0 153.6 L 358.0 151.8 L 360.0 150.0 L 362.0 148.2 L 364.0 146.4 L 366.0 144.7 L 368.0 142.9 L 370.0 141.1 L 372.0 139.3 L 374.0 137.6 L 376.0 135.8 L 378.0 134.1 L 380.0 132.3 L 382.0 130.6 L 384.0 128.9 L 386.0 127.1 L 388.0 125.4 L 390.0 123.7 L 392.0 122.0 L 394.0 120.4 L 396.0 118.7 L 398.0 117.1 L 400.0 115.4 L 402.0 113.8 L 404.0 112.2 L 406.0 110.6 L 408.0 109.1 L 410.0 107.5 L 412.0 106.0 L 414.0 104.5 L 416.0 103.0 L 418.0 101.5 L 420.0 100.0 L 422.0 98.6 L 424.0 97.2 L 426.0 95.8 L 428.0 94.5 L 430.0 93.1 L 432.0 91.8 L 434.0 90.5 L 436.0 89.3 L 438.0 88.0 L 440.0 86.8 L 442.0 85.7 L 444.0 84.5 L 446.0 83.4 L 448.0 82.3 L 450.0 81.2 L 452.0 80.2 L 454.0 79.2 L 456.0 78.2 L 458.0 77.3 L 460.0 76.4 L 462.0 75.5 L 464.0 74.7 L 466.0 73.9 L 468.0 73.1 L 470.0 72.3 L 472.0 71.6 L 474.0 71.0 L 476.0 70.3 L 478.0 69.7 L 480.0 69.2 L 482.0 68.6 L 484.0 68.1 L 486.0 67.7 L 488.0 67.2 L 490.0 66.9 L 492.0 66.5 L 494.0 66.2 L 496.0 65.9 L 498.0 65.7 L 500.0 65.5 L 502.0 65.3 L 504.0 65.2 L 506.0 65.1 L 508.0 65.0 L 510.0 65.0 L 512.0 65.0 L 514.0 65.1 L 516.0 65.2 L 518.0 65.3 L 520.0 65.5 L 522.0 65.7 L 524.0 65.9 L 526.0 66.2 L 528.0 66.5 L 530.0 66.9 L 532.0 67.2 L 534.0 67.7 L 536.0 68.1 L 538.0 68.6 L 540.0 69.2 L 542.0 69.7 L 544.0 70.3 L 546.0 71.0 L 548.0 71.6 L 550.0 72.3 L 552.0 73.1 L 554.0 73.9 L 556.0 74.7 L 558.0 75.5 L 560.0 76.4 L 562.0 77.3 L 564.0 78.2 L 566.0 79.2 L 568.0 80.2 L 570.0 81.2 L 572.0 82.3 L 574.0 83.4 L 576.0 84.5 L 578.0 85.7 L 580.0 86.8 L 582.0 88.0 L 584.0 89.3 L 586.0 90.5 L 588.0 91.8 L 590.0 93.1 L 592.0 94.5 L 594.0 95.8 L 596.0 97.2 L 598.0 98.6 L 600.0 100.0 L 602.0 101.5 L 604.0 103.0 L 606.0 104.5 L 608.0 106.0 L 610.0 107.5 L 612.0 109.1 L 614.0 110.6 L 616.0 112.2 L 618.0 113.8 L 620.0 115.4 L 622.0 117.1 L 624.0 118.7 L 626.0 120.4 L 628.0 122.0 L 630.0 123.7 L 632.0 125.4 L 634.0 127.1 L 636.0 128.9 L 638.0 130.6 L 640.0 132.3 L 642.0 134.1 L 644.0 135.8 L 646.0 137.6 L 648.0 139.3 L 650.0 141.1 L 652.0 142.9 L 654.0 144.7 L 656.0 146.4 L 658.0 148.2 L 660.0 150.0" fill="none" stroke="#E06C60" stroke-width="2.4"/>
<circle cx="60.0" cy="150.0" r="5" fill="#E06C60"/>
<circle cx="110.0" cy="192.5" r="5" fill="#E06C60"/>
<circle cx="160.0" cy="223.6" r="5" fill="#E06C60"/>
<circle cx="210.0" cy="235.0" r="5" fill="#E06C60"/>
<circle cx="260.0" cy="223.6" r="5" fill="#E06C60"/>
<circle cx="310.0" cy="192.5" r="5" fill="#E06C60"/>
<circle cx="360.0" cy="150.0" r="5" fill="#E06C60"/>
<circle cx="410.0" cy="107.5" r="5" fill="#E06C60"/>
<circle cx="460.0" cy="76.4" r="5" fill="#E06C60"/>
<circle cx="510.0" cy="65.0" r="5" fill="#E06C60"/>
<circle cx="560.0" cy="76.4" r="5" fill="#E06C60"/>
<circle cx="610.0" cy="107.5" r="5" fill="#E06C60"/>
<circle cx="660.0" cy="150.0" r="5" fill="#E06C60"/>
<text x="360" y="286" text-anchor="middle" font-size="14" fill="#F6F7F9">11 cycles (gray), sampled 12 times (dots) — the dots fit the 1-cycle impostor (red) perfectly</text>
</svg>