<svg xmlns="http://www.w3.org/2000/svg" viewBox="0 0 720 360" font-family="system-ui, sans-serif">
<line x1="70" y1="50.0" x2="610" y2="50.0" stroke="#99A1B3" stroke-width="0.6" stroke-opacity="0.5"/>
<line x1="70" y1="66.0" x2="610" y2="66.0" stroke="#99A1B3" stroke-width="0.6" stroke-opacity="0.5"/>
<line x1="70" y1="82.0" x2="610" y2="82.0" stroke="#99A1B3" stroke-width="0.6" stroke-opacity="0.5"/>
<line x1="70" y1="98.0" x2="610" y2="98.0" stroke="#99A1B3" stroke-width="0.6" stroke-opacity="0.5"/>
<line x1="70" y1="114.0" x2="610" y2="114.0" stroke="#99A1B3" stroke-width="0.6" stroke-opacity="0.5"/>
<line x1="70" y1="130.0" x2="610" y2="130.0" stroke="#99A1B3" stroke-width="0.6" stroke-opacity="0.5"/>
<line x1="70" y1="146.0" x2="610" y2="146.0" stroke="#99A1B3" stroke-width="0.6" stroke-opacity="0.5"/>
<line x1="70" y1="162.0" x2="610" y2="162.0" stroke="#99A1B3" stroke-width="0.6" stroke-opacity="0.5"/>
<line x1="70" y1="178.0" x2="610" y2="178.0" stroke="#99A1B3" stroke-width="0.6" stroke-opacity="0.5"/>
<line x1="70" y1="194.0" x2="610" y2="194.0" stroke="#99A1B3" stroke-width="0.6" stroke-opacity="0.5"/>
<line x1="70" y1="210.0" x2="610" y2="210.0" stroke="#99A1B3" stroke-width="0.6" stroke-opacity="0.5"/>
<line x1="70" y1="226.0" x2="610" y2="226.0" stroke="#99A1B3" stroke-width="0.6" stroke-opacity="0.5"/>
<line x1="70" y1="242.0" x2="610" y2="242.0" stroke="#99A1B3" stroke-width="0.6" stroke-opacity="0.5"/>
<line x1="70" y1="258.0" x2="610" y2="258.0" stroke="#99A1B3" stroke-width="0.6" stroke-opacity="0.5"/>
<line x1="70" y1="274.0" x2="610" y2="274.0" stroke="#99A1B3" stroke-width="0.6" stroke-opacity="0.5"/>
<line x1="70" y1="290.0" x2="610" y2="290.0" stroke="#99A1B3" stroke-width="0.6" stroke-opacity="0.5"/>
<path d="M 70.0 127.0 L 71.8 123.8 L 73.6 120.7 L 75.4 117.6 L 77.2 114.6 L 79.0 111.6 L 80.8 108.7 L 82.6 105.9 L 84.4 103.1 L 86.2 100.3 L 88.0 97.7 L 89.8 95.1 L 91.6 92.6 L 93.4 90.2 L 95.2 87.8 L 97.0 85.5 L 98.8 83.3 L 100.6 81.2 L 102.4 79.2 L 104.2 77.3 L 106.0 75.4 L 107.8 73.7 L 109.6 72.1 L 111.4 70.5 L 113.2 69.1 L 115.0 67.7 L 116.8 66.4 L 118.6 65.3 L 120.4 64.2 L 122.2 63.3 L 124.0 62.5 L 125.8 61.7 L 127.6 61.1 L 129.4 60.6 L 131.2 60.2 L 133.0 59.9 L 134.8 59.7 L 136.6 59.6 L 138.4 59.6 L 140.2 59.8 L 142.0 60.0 L 143.8 60.4 L 145.6 60.8 L 147.4 61.4 L 149.2 62.1 L 151.0 62.8 L 152.8 63.7 L 154.6 64.7 L 156.4 65.8 L 158.2 67.0 L 160.0 68.3 L 161.8 69.7 L 163.6 71.2 L 165.4 72.8 L 167.2 74.5 L 169.0 76.3 L 170.8 78.2 L 172.6 80.1 L 174.4 82.2 L 176.2 84.3 L 178.0 86.6 L 179.8 88.9 L 181.6 91.3 L 183.4 93.8 L 185.2 96.3 L 187.0 98.9 L 188.8 101.6 L 190.6 104.4 L 192.4 107.2 L 194.2 110.1 L 196.0 113.0 L 197.8 116.0 L 199.6 119.1 L 201.4 122.2 L 203.2 125.3 L 205.0 128.5 L 206.8 131.7 L 208.6 135.0 L 210.4 138.3 L 212.2 141.6 L 214.0 145.0 L 215.8 148.4 L 217.6 151.8 L 219.4 155.2 L 221.2 158.7 L 223.0 162.1 L 224.8 165.6 L 226.6 169.1 L 228.4 172.5 L 230.2 176.0 L 232.0 179.5 L 233.8 182.9 L 235.6 186.4 L 237.4 189.8 L 239.2 193.2 L 241.0 196.6 L 242.8 199.9 L 244.6 203.2 L 246.4 206.5 L 248.2 209.8 L 250.0 213.0 L 251.8 216.2 L 253.6 219.3 L 255.4 222.4 L 257.2 225.4 L 259.0 228.4 L 260.8 231.3 L 262.6 234.1 L 264.4 236.9 L 266.2 239.7 L 268.0 242.3 L 269.8 244.9 L 271.6 247.4 L 273.4 249.8 L 275.2 252.2 L 277.0 254.5 L 278.8 256.7 L 280.6 258.8 L 282.4 260.8 L 284.2 262.7 L 286.0 264.6 L 287.8 266.3 L 289.6 267.9 L 291.4 269.5 L 293.2 270.9 L 295.0 272.3 L 296.8 273.6 L 298.6 274.7 L 300.4 275.8 L 302.2 276.7 L 304.0 277.5 L 305.8 278.3 L 307.6 278.9 L 309.4 279.4 L 311.2 279.8 L 313.0 280.1 L 314.8 280.3 L 316.6 280.4 L 318.4 280.4 L 320.2 280.2 L 322.0 280.0 L 323.8 279.6 L 325.6 279.2 L 327.4 278.6 L 329.2 277.9 L 331.0 277.2 L 332.8 276.3 L 334.6 275.3 L 336.4 274.2 L 338.2 273.0 L 340.0 271.7 L 341.8 270.3 L 343.6 268.8 L 345.4 267.2 L 347.2 265.5 L 349.0 263.7 L 350.8 261.8 L 352.6 259.9 L 354.4 257.8 L 356.2 255.7 L 358.0 253.4 L 359.8 251.1 L 361.6 248.7 L 363.4 246.2 L 365.2 243.7 L 367.0 241.1 L 368.8 238.4 L 370.6 235.6 L 372.4 232.8 L 374.2 229.9 L 376.0 227.0 L 377.8 224.0 L 379.6 220.9 L 381.4 217.8 L 383.2 214.7 L 385.0 211.5 L 386.8 208.3 L 388.6 205.0 L 390.4 201.7 L 392.2 198.4 L 394.0 195.0 L 395.8 191.6 L 397.6 188.2 L 399.4 184.8 L 401.2 181.3 L 403.0 177.9 L 404.8 174.4 L 406.6 170.9 L 408.4 167.5 L 410.2 164.0 L 412.0 160.5 L 413.8 157.1 L 415.6 153.6 L 417.4 150.2 L 419.2 146.8 L 421.0 143.4 L 422.8 140.1 L 424.6 136.8 L 426.4 133.5 L 428.2 130.2 L 430.0 127.0 L 431.8 123.8 L 433.6 120.7 L 435.4 117.6 L 437.2 114.6 L 439.0 111.6 L 440.8 108.7 L 442.6 105.9 L 444.4 103.1 L 446.2 100.3 L 448.0 97.7 L 449.8 95.1 L 451.6 92.6 L 453.4 90.2 L 455.2 87.8 L 457.0 85.5 L 458.8 83.3 L 460.6 81.2 L 462.4 79.2 L 464.2 77.3 L 466.0 75.4 L 467.8 73.7 L 469.6 72.1 L 471.4 70.5 L 473.2 69.1 L 475.0 67.7 L 476.8 66.4 L 478.6 65.3 L 480.4 64.2 L 482.2 63.3 L 484.0 62.5 L 485.8 61.7 L 487.6 61.1 L 489.4 60.6 L 491.2 60.2 L 493.0 59.9 L 494.8 59.7 L 496.6 59.6 L 498.4 59.6 L 500.2 59.8 L 502.0 60.0 L 503.8 60.4 L 505.6 60.8 L 507.4 61.4 L 509.2 62.1 L 511.0 62.8 L 512.8 63.7 L 514.6 64.7 L 516.4 65.8 L 518.2 67.0 L 520.0 68.3 L 521.8 69.7 L 523.6 71.2 L 525.4 72.8 L 527.2 74.5 L 529.0 76.3 L 530.8 78.2 L 532.6 80.1 L 534.4 82.2 L 536.2 84.3 L 538.0 86.6 L 539.8 88.9 L 541.6 91.3 L 543.4 93.8 L 545.2 96.3 L 547.0 98.9 L 548.8 101.6 L 550.6 104.4 L 552.4 107.2 L 554.2 110.1 L 556.0 113.0 L 557.8 116.0 L 559.6 119.1 L 561.4 122.2 L 563.2 125.3 L 565.0 128.5 L 566.8 131.7 L 568.6 135.0 L 570.4 138.3 L 572.2 141.6 L 574.0 145.0 L 575.8 148.4 L 577.6 151.8 L 579.4 155.2 L 581.2 158.7 L 583.0 162.1 L 584.8 165.6 L 586.6 169.1 L 588.4 172.5 L 590.2 176.0 L 592.0 179.5 L 593.8 182.9 L 595.6 186.4 L 597.4 189.8 L 599.2 193.2 L 601.0 196.6 L 602.8 199.9 L 604.6 203.2 L 606.4 206.5 L 608.2 209.8 L 610.0 213.0" fill="none" stroke="#99A1B3" stroke-width="2.2"/>
<line x1="70.0" y1="50" x2="70.0" y2="290" stroke="#99A1B3" stroke-width="0.8" stroke-dasharray="3 4"/>
<line x1="115.0" y1="50" x2="115.0" y2="290" stroke="#99A1B3" stroke-width="0.8" stroke-dasharray="3 4"/>
<line x1="160.0" y1="50" x2="160.0" y2="290" stroke="#99A1B3" stroke-width="0.8" stroke-dasharray="3 4"/>
<line x1="205.0" y1="50" x2="205.0" y2="290" stroke="#99A1B3" stroke-width="0.8" stroke-dasharray="3 4"/>
<line x1="250.0" y1="50" x2="250.0" y2="290" stroke="#99A1B3" stroke-width="0.8" stroke-dasharray="3 4"/>
<line x1="295.0" y1="50" x2="295.0" y2="290" stroke="#99A1B3" stroke-width="0.8" stroke-dasharray="3 4"/>
<line x1="340.0" y1="50" x2="340.0" y2="290" stroke="#99A1B3" stroke-width="0.8" stroke-dasharray="3 4"/>
<line x1="385.0" y1="50" x2="385.0" y2="290" stroke="#99A1B3" stroke-width="0.8" stroke-dasharray="3 4"/>
<line x1="430.0" y1="50" x2="430.0" y2="290" stroke="#99A1B3" stroke-width="0.8" stroke-dasharray="3 4"/>
<line x1="475.0" y1="50" x2="475.0" y2="290" stroke="#99A1B3" stroke-width="0.8" stroke-dasharray="3 4"/>
<line x1="520.0" y1="50" x2="520.0" y2="290" stroke="#99A1B3" stroke-width="0.8" stroke-dasharray="3 4"/>
<line x1="565.0" y1="50" x2="565.0" y2="290" stroke="#99A1B3" stroke-width="0.8" stroke-dasharray="3 4"/>
<line x1="610.0" y1="50" x2="610.0" y2="290" stroke="#99A1B3" stroke-width="0.8" stroke-dasharray="3 4"/>
<path d="M 70.0 130.0 L 115.0 130.0 L 115.0 66.0 L 160.0 66.0 L 160.0 66.0 L 205.0 66.0 L 205.0 130.0 L 250.0 130.0 L 250.0 210.0 L 295.0 210.0 L 295.0 274.0 L 340.0 274.0 L 340.0 274.0 L 385.0 274.0 L 385.0 210.0 L 430.0 210.0 L 430.0 130.0 L 475.0 130.0 L 475.0 66.0 L 520.0 66.0 L 520.0 66.0 L 565.0 66.0 L 565.0 130.0 L 610.0 130.0 L 610.0 210.0" fill="none" stroke="#087EA4" stroke-width="2"/>
<circle cx="70.0" cy="130.0" r="4.5" fill="#087EA4"/>
<circle cx="115.0" cy="66.0" r="4.5" fill="#087EA4"/>
<circle cx="160.0" cy="66.0" r="4.5" fill="#087EA4"/>
<circle cx="205.0" cy="130.0" r="4.5" fill="#087EA4"/>
<circle cx="250.0" cy="210.0" r="4.5" fill="#087EA4"/>
<circle cx="295.0" cy="274.0" r="4.5" fill="#087EA4"/>
<circle cx="340.0" cy="274.0" r="4.5" fill="#087EA4"/>
<circle cx="385.0" cy="210.0" r="4.5" fill="#087EA4"/>
<circle cx="430.0" cy="130.0" r="4.5" fill="#087EA4"/>
<circle cx="475.0" cy="66.0" r="4.5" fill="#087EA4"/>
<circle cx="520.0" cy="66.0" r="4.5" fill="#087EA4"/>
<circle cx="565.0" cy="130.0" r="4.5" fill="#087EA4"/>
<circle cx="610.0" cy="210.0" r="4.5" fill="#087EA4"/>
<defs><marker id="ars" viewBox="0 0 10 10" refX="9" refY="5" markerWidth="7" markerHeight="7" orient="auto"><path d="M 0 1 L 9 5 L 0 9 z" fill="#23272F"/></marker></defs>
<line x1="70" y1="322" x2="260" y2="322" stroke="#23272F" stroke-width="1.8" marker-end="url(#ars)"/>
<text x="270" y="327" text-anchor="start" font-size="14" fill="#23272F">sampling: slice time into columns</text>
<line x1="648" y1="290" x2="648" y2="170" stroke="#23272F" stroke-width="1.8" marker-end="url(#ars)"/>
<text x="662" y="130" text-anchor="middle" font-size="13" fill="#23272F" transform="rotate(90 662 130)">quantize: snap to 2ⁿ levels</text>
<text x="70" y="34" text-anchor="start" font-size="13" fill="#99A1B3">here: 4 bits → 16 levels, 13 samples</text>
</svg>